<?xml version="1.0" encoding="utf-8"?>
<!-- Generator: Adobe Illustrator 24.0.2, SVG Export Plug-In . SVG Version: 6.00 Build 0)  -->
<svg version="1.1" id="Layer_1" xmlns="http://www.w3.org/2000/svg" xmlns:xlink="http://www.w3.org/1999/xlink" x="0px" y="0px"
	 viewBox="0 0 200 200" style="enable-background:new 0 0 200 200;" xml:space="preserve">
<style type="text/css">
	.st0{fill:#FF2E2E;}
	.st1{fill:#A80000;}
</style>
<g>
	<g>
		<path class="st0" d="M71.91,142.98v-15.59c0-0.94,0.76-1.69,1.69-1.69h0c0.94,0,1.69,0.76,1.69,1.69v15.59
			c0,0.94-0.76,1.69-1.69,1.69h0C72.67,144.68,71.91,143.92,71.91,142.98z"/>
		<path class="st1" d="M71.54,143.32h4.13c2.42,0,4.38,1.96,4.38,4.38v3.76H67.16v-3.76C67.16,145.28,69.12,143.32,71.54,143.32z"/>
	</g>
	<g>
		<path class="st0" d="M184.41,142.98v-15.59c0-0.94,0.76-1.69,1.69-1.69l0,0c0.94,0,1.69,0.76,1.69,1.69v15.59
			c0,0.94-0.76,1.69-1.69,1.69l0,0C185.17,144.68,184.41,143.92,184.41,142.98z"/>
		<path class="st1" d="M184.04,143.32h4.13c2.42,0,4.38,1.96,4.38,4.38v3.76h-12.88v-3.76
			C179.67,145.28,181.63,143.32,184.04,143.32z"/>
	</g>
	<path class="st1" d="M194.58,141.29H65.13c-2.99,0-5.42-2.43-5.42-5.42v0c0-2.99,2.43-5.42,5.42-5.42h129.45
		c2.99,0,5.42,2.43,5.42,5.42v0C200,138.86,197.57,141.29,194.58,141.29z"/>
	<rect x="105.79" y="120.28" class="st0" width="46.09" height="10.17"/>
	<path class="st1" d="M98.64,89.79l13.4,2.79c1.51,0.31,2.99-0.65,3.3-2.16l3.09-14.82c0.31-1.51-0.65-2.99-2.16-3.3l-13.4-2.79
		c-1.51-0.31-2.99,0.65-3.3,2.16l-3.09,14.82C96.17,87.99,97.14,89.47,98.64,89.79z"/>
	<path class="st0" d="M105.68,84.14l56.56,11.79c1.83,0.38,3.62-0.79,4.01-2.62l2.49-11.95c0.38-1.83-0.79-3.62-2.62-4.01
		l-56.56-11.79c-1.83-0.38-3.62,0.79-4.01,2.62l-2.49,11.95C102.68,81.97,103.85,83.76,105.68,84.14z"/>
	<path class="st1" d="M93.59,120.28h72.37c1.21,0,2.19-0.98,2.19-2.19V95.24c0-4.89-3.96-8.85-8.85-8.85h-46.22
		c-0.73,0-1.42,0.37-1.83,0.98l-19.48,29.51C90.81,118.34,91.85,120.28,93.59,120.28z"/>
	
		<rect x="21.06" y="62.06" transform="matrix(0.979 0.204 -0.204 0.979 14.4734 -11.1968)" class="st0" width="80.97" height="5.09"/>
	
		<rect x="18.36" y="74.86" transform="matrix(0.979 0.204 -0.204 0.979 17.0183 -10.2947)" class="st0" width="80.17" height="5.09"/>
	<rect x="0.64" y="63.27" transform="matrix(0.979 0.204 -0.204 0.979 13.9583 -0.6427)" class="st1" width="18.91" height="8.24"/>
	<rect x="3.35" y="50.39" transform="matrix(0.979 0.204 -0.204 0.979 11.3885 -1.4664)" class="st1" width="18.91" height="8.24"/>
</g>
</svg>
