<svg version="1.1" id="Layer_1" xmlns="http://www.w3.org/2000/svg" x="0" y="0" viewBox="0 0 200 200" xml:space="preserve"><style>.st0{fill:#ff2e2e}.st1{fill:#a80000}</style><path class="st0" d="M71.91 142.98v-15.59c0-.94.76-1.69 1.69-1.69.94 0 1.69.76 1.69 1.69v15.59c0 .94-.76 1.69-1.69 1.69-.93.01-1.69-.75-1.69-1.69z"/><path class="st1" d="M71.54 143.32h4.13c2.42 0 4.38 1.96 4.38 4.38v3.76H67.16v-3.76c0-2.42 1.96-4.38 4.38-4.38z"/><path class="st0" d="M184.41 142.98v-15.59c0-.94.76-1.69 1.69-1.69.94 0 1.69.76 1.69 1.69v15.59c0 .94-.76 1.69-1.69 1.69-.93.01-1.69-.75-1.69-1.69z"/><path class="st1" d="M184.04 143.32h4.13c2.42 0 4.38 1.96 4.38 4.38v3.76h-12.88v-3.76c0-2.42 1.96-4.38 4.37-4.38zM194.58 141.29H65.13c-2.99 0-5.42-2.43-5.42-5.42 0-2.99 2.43-5.42 5.42-5.42h129.45c2.99 0 5.42 2.43 5.42 5.42 0 2.99-2.43 5.42-5.42 5.42z"/><path class="st0" d="M105.79 120.28h46.09v10.17h-46.09z"/><path class="st1" d="M98.64 89.79l13.4 2.79c1.51.31 2.99-.65 3.3-2.16l3.09-14.82c.31-1.51-.65-2.99-2.16-3.3l-13.4-2.79c-1.51-.31-2.99.65-3.3 2.16l-3.09 14.82c-.31 1.5.66 2.98 2.16 3.3z"/><path class="st0" d="M105.68 84.14l56.56 11.79c1.83.38 3.62-.79 4.01-2.62l2.49-11.95c.38-1.83-.79-3.62-2.62-4.01l-56.56-11.79c-1.83-.38-3.62.79-4.01 2.62l-2.49 11.95c-.38 1.84.79 3.63 2.62 4.01z"/><path class="st1" d="M93.59 120.28h72.37c1.21 0 2.19-.98 2.19-2.19V95.24c0-4.89-3.96-8.85-8.85-8.85h-46.22c-.73 0-1.42.37-1.83.98l-19.48 29.51c-.96 1.46.08 3.4 1.82 3.4z"/><path transform="rotate(11.76 61.538 64.613)" class="st0" d="M21.06 62.06h80.97v5.09H21.06z"/><path transform="rotate(11.76 58.433 77.408)" class="st0" d="M18.36 74.86h80.17v5.09H18.36z"/><path transform="rotate(11.76 10.087 67.385)" class="st1" d="M.64 63.27h18.91v8.24H.64z"/><path transform="rotate(11.76 12.8 54.508)" class="st1" d="M3.35 50.39h18.91v8.24H3.35z"/></svg>