<svg width="65" height="47" viewBox="0 0 65 47" fill="none" xmlns="http://www.w3.org/2000/svg">
<path d="M64.5058 45.274C64.1505 46.24 61.4951 48.9129 42.4241 42.0855L23.7266 35.3925C17.2183 33.0647 8.05815 29.4041 4.46883 27.3413C1.95631 25.8996 1.40692 22.6856 1.40692 22.6856C1.40692 22.6856 0.809921 11.9507 0.443663 9.30693C0.0774057 6.66315 0.791607 6.2092 3.35907 7.5202C4.95595 8.3373 10.1898 16.8243 12.3837 20.474C17.9215 21.8576 22.8659 23.2376 25.177 23.9204C24.2357 17.685 22.4667 6.02399 21.8331 2.37426C21.2251 -1.12295 23.8475 0.431366 23.8475 0.431366C25.0598 1.12137 27.4478 2.83184 28.2646 4.0702C33.839 12.5172 41.7136 28.0386 42.3142 29.2297C45.5959 30.2466 50.6539 31.8917 53.6755 32.9703C61.572 35.7993 64.9819 43.9885 64.5058 45.274Z" fill="white"/>
</svg>
