<svg version="1.1" id="Layer_1" xmlns="http://www.w3.org/2000/svg" x="0" y="0" viewBox="0 0 200 200" xml:space="preserve"><style>.st0{fill:#d20000}.st1{fill:#ff2e2e}</style><path class="st0" d="M114.68 155.74H85.27l-15.19-13.49L83.73 39.88 99.98 5.55l16.24 34.33 13.65 102.38-15.19 13.48zM108.59 185.34l6.06-29.6H85.3l6.07 29.6h17.22z"/><path class="st0" d="M85.27 155.68l-26.51 20.37 7.59 18.4 24.99-9.11-6.07-29.66zM114.68 155.68l26.51 20.37-6.08 18.4-26.51-9.11 6.08-29.66z"/><path class="st1" d="M118.38 56l-8.31-10.31c-4.49-5.57-12.65-6.44-18.22-1.95-.72.58-1.37 1.23-1.95 1.95L81.58 56l-.75 5.6 9.82-5.61c5.78-3.3 12.87-3.3 18.65 0l9.82 5.62-.74-5.61z"/><path class="st0" d="M120.07 68.51l74.41 59.89v29.83l-64.59-16.03-9.82-73.69z"/><path class="st1" d="M145.73 146.12l-5.6-41.99 39.17 31.52v18.8l-33.57-8.33zM155.78 97.3V76l-6.64-7.7-6.64 7.7v10.61l13.28 10.69zM181.58 118.23V95.16l-6.64-7.7-6.64 7.7v12.39l13.28 10.68z"/><path class="st0" d="M79.93 68.51L5.52 128.4v29.83l64.59-16.03 9.82-73.69z"/><path class="st1" d="M54.27 146.12l5.6-41.99-39.17 31.53v18.8l33.57-8.34zM44.22 97.3V76l6.64-7.7L57.5 76v10.61L44.22 97.3zM18.42 118.23V95.16l6.64-7.7 6.64 7.7v12.39l-13.28 10.68zM92.68 87.83l-6.46 48.45 4.84 4.29h17.85l4.83-4.29-6.46-48.45h-14.6z"/></svg>