<?xml version="1.0" encoding="utf-8"?>
<!-- Generator: Adobe Illustrator 24.0.2, SVG Export Plug-In . SVG Version: 6.00 Build 0)  -->
<svg version="1.1" id="Layer_1" xmlns="http://www.w3.org/2000/svg" xmlns:xlink="http://www.w3.org/1999/xlink" x="0px" y="0px"
	 viewBox="0 0 200 200" style="enable-background:new 0 0 200 200;" xml:space="preserve">
<style type="text/css">
	.st0{fill:#D20000;}
	.st1{fill:#FF2E2E;}
</style>
<g>
	<path class="st0" d="M114.68,155.74H85.27l-15.19-13.49L83.73,39.88L99.98,5.55l16.24,34.33l13.65,102.38L114.68,155.74z"/>
	<path class="st0" d="M108.59,185.34l6.06-29.6H85.3l6.07,29.6H108.59z"/>
	<path class="st0" d="M85.27,155.68l-26.51,20.37l7.59,18.4l24.99-9.11L85.27,155.68z"/>
	<path class="st0" d="M114.68,155.68l26.51,20.37l-6.08,18.4l-26.51-9.11L114.68,155.68z"/>
	<path class="st1" d="M118.38,56l-8.31-10.31c-4.49-5.57-12.65-6.44-18.22-1.95c-0.72,0.58-1.37,1.23-1.95,1.95L81.58,56l-0.75,5.6
		l9.82-5.61c5.78-3.3,12.87-3.3,18.65,0l9.82,5.62L118.38,56z"/>
	<path class="st0" d="M120.07,68.51l74.41,59.89v29.83l-64.59-16.03L120.07,68.51z"/>
	<path class="st1" d="M145.73,146.12l-5.6-41.99l39.17,31.52v18.8L145.73,146.12z"/>
	<path class="st1" d="M155.78,97.3v-21.3l-6.64-7.7l-6.64,7.7v10.61L155.78,97.3z"/>
	<path class="st1" d="M181.58,118.23V95.16l-6.64-7.7l-6.64,7.7v12.39L181.58,118.23z"/>
	<path class="st0" d="M79.93,68.51L5.52,128.4v29.83l64.59-16.03L79.93,68.51z"/>
	<path class="st1" d="M54.27,146.12l5.6-41.99L20.7,135.66v18.8L54.27,146.12z"/>
	<path class="st1" d="M44.22,97.3v-21.3l6.64-7.7l6.64,7.7v10.61L44.22,97.3z"/>
	<path class="st1" d="M18.42,118.23V95.16l6.64-7.7l6.64,7.7v12.39L18.42,118.23z"/>
	<path class="st1" d="M92.68,87.83l-6.46,48.45l4.84,4.29h17.85l4.83-4.29l-6.46-48.45H92.68z"/>
</g>
</svg>
