<?xml version="1.0" encoding="utf-8"?>
<!-- Generator: Adobe Illustrator 24.0.2, SVG Export Plug-In . SVG Version: 6.00 Build 0)  -->
<svg version="1.1" id="Layer_1" xmlns="http://www.w3.org/2000/svg" xmlns:xlink="http://www.w3.org/1999/xlink" x="0px" y="0px"
	 viewBox="0 0 200 200" style="enable-background:new 0 0 200 200;" xml:space="preserve">
<style type="text/css">
	.st0{fill:#FFFFFF;}
	.st1{fill:#D20000;stroke:#272727;stroke-width:1.5847;stroke-miterlimit:10;}
</style>
<g>
	<g>
		<path class="st0" d="M6.59,101.61l2.27-48.91h60.1v15.33H23.65l-0.93,21.72c2.75-0.98,5.57-1.69,8.46-2.13
			c2.89-0.44,5.88-0.67,9-0.67c10.13,0,18.35,2.64,24.65,7.93c6.31,5.29,9.46,12.19,9.46,20.72c0,4.71-0.91,9.02-2.73,12.93
			c-1.82,3.91-4.4,7.26-7.73,10.06s-7.35,4.98-12.06,6.53c-4.71,1.55-9.86,2.33-15.46,2.33c-6.66,0-12.97-1.07-18.92-3.2
			c-5.95-2.13-11.24-5.24-15.86-9.33l11.06-12.39c4.09,3.38,8.02,5.8,11.79,7.26c3.77,1.47,7.93,2.2,12.46,2.2
			c5.6,0,10.13-1.42,13.59-4.26c3.46-2.84,5.2-6.57,5.2-11.19c0-4.44-1.87-8.06-5.6-10.86c-3.73-2.8-8.53-4.2-14.39-4.2
			c-2.75,0-5.62,0.33-8.6,1c-2.98,0.67-5.84,1.58-8.6,2.73L6.59,101.61z"/>
		<path class="st0" d="M124.13,147.32c-6.13,0-11.73-1.16-16.79-3.46c-5.06-2.31-9.37-5.55-12.93-9.73
			c-3.55-4.18-6.33-9.24-8.33-15.19c-2-5.95-3-12.53-3-19.72c0-7.11,1-13.64,3-19.59c2-5.95,4.8-11.02,8.4-15.19
			c3.6-4.18,7.93-7.42,12.99-9.73c5.06-2.31,10.62-3.46,16.66-3.46c6.13,0,11.73,1.16,16.79,3.46c5.06,2.31,9.37,5.55,12.93,9.73
			c3.55,4.18,6.33,9.24,8.33,15.19c2,5.95,3,12.48,3,19.59c0,7.2-0.98,13.77-2.93,19.72c-1.96,5.95-4.73,11.02-8.33,15.19
			c-3.6,4.18-7.93,7.42-12.99,9.73C135.86,146.17,130.26,147.32,124.13,147.32z M124.13,131.47c7.2,0,12.88-2.89,17.06-8.66
			c4.17-5.77,6.26-13.64,6.26-23.59c0-9.77-2.11-17.57-6.33-23.39c-4.22-5.82-9.88-8.73-16.99-8.73c-7.11,0-12.75,2.91-16.92,8.73
			c-4.18,5.82-6.26,13.62-6.26,23.39c0,9.95,2.09,17.81,6.26,23.59C111.38,128.58,117.02,131.47,124.13,131.47z"/>
	</g>
	<g>
		<g>
			<path class="st1" d="M158.06,124.75c-3.29,0-5.95-1.14-7.96-3.43c-2.01-2.29-3.02-5.28-3.02-8.99c0-3.66,1-6.63,3.02-8.92
				c2.01-2.29,4.67-3.43,7.96-3.43c3.25,0,5.88,1.14,7.89,3.43c2.01,2.29,3.02,5.26,3.02,8.92c0,3.71-1,6.7-2.98,8.99
				C164,123.61,161.36,124.75,158.06,124.75z M158.06,119.74c1.65,0,2.94-0.66,3.88-1.99c0.94-1.33,1.41-3.13,1.41-5.42
				c0-2.24-0.48-4.02-1.44-5.35c-0.96-1.33-2.24-1.99-3.84-1.99c-1.65,0-2.94,0.66-3.88,1.99c-0.94,1.33-1.43,3.11-1.48,5.35
				c0.05,2.29,0.53,4.09,1.44,5.42C155.07,119.08,156.37,119.74,158.06,119.74z M162.38,148.42h-7l27.17-48.03h7.07L162.38,148.42z
				 M187.56,148.76c-3.29,0-5.95-1.14-7.96-3.43s-3.02-5.28-3.02-8.99c0-3.66,1.01-6.63,3.02-8.92c2.01-2.29,4.67-3.43,7.96-3.43
				c3.25,0,5.88,1.14,7.89,3.43c2.01,2.29,3.02,5.26,3.02,8.92c0,3.71-0.99,6.7-2.98,8.99C193.5,147.62,190.86,148.76,187.56,148.76
				z M187.56,143.75c1.65,0,2.94-0.66,3.88-1.99c0.94-1.33,1.41-3.13,1.41-5.42c0-2.24-0.48-4.02-1.44-5.35
				c-0.96-1.33-2.24-1.99-3.84-1.99c-1.65,0-2.94,0.66-3.88,1.99c-0.94,1.33-1.43,3.11-1.47,5.35c0.04,2.29,0.53,4.09,1.44,5.42
				C184.57,143.09,185.87,143.75,187.56,143.75z"/>
		</g>
	</g>
</g>
</svg>
