<svg version="1.1" id="Layer_1" xmlns="http://www.w3.org/2000/svg" x="0" y="0" viewBox="0 0 200 200" xml:space="preserve"><style>.st0{fill:#fff}</style><path class="st0" d="M6.59 101.61L8.86 52.7h60.1v15.33H23.65l-.93 21.72c2.75-.98 5.57-1.69 8.46-2.13 2.89-.44 5.88-.67 9-.67 10.13 0 18.35 2.64 24.65 7.93 6.31 5.29 9.46 12.19 9.46 20.72 0 4.71-.91 9.02-2.73 12.93-1.82 3.91-4.4 7.26-7.73 10.06s-7.35 4.98-12.06 6.53c-4.71 1.55-9.86 2.33-15.46 2.33-6.66 0-12.97-1.07-18.92-3.2-5.95-2.13-11.24-5.24-15.86-9.33l11.06-12.39c4.09 3.38 8.02 5.8 11.79 7.26 3.77 1.47 7.93 2.2 12.46 2.2 5.6 0 10.13-1.42 13.59-4.26 3.46-2.84 5.2-6.57 5.2-11.19 0-4.44-1.87-8.06-5.6-10.86-3.73-2.8-8.53-4.2-14.39-4.2-2.75 0-5.62.33-8.6 1a51.88 51.88 0 00-8.6 2.73l-11.85-3.6zM124.13 147.32c-6.13 0-11.73-1.16-16.79-3.46-5.06-2.31-9.37-5.55-12.93-9.73-3.55-4.18-6.33-9.24-8.33-15.19-2-5.95-3-12.53-3-19.72 0-7.11 1-13.64 3-19.59 2-5.95 4.8-11.02 8.4-15.19 3.6-4.18 7.93-7.42 12.99-9.73 5.06-2.31 10.62-3.46 16.66-3.46 6.13 0 11.73 1.16 16.79 3.46 5.06 2.31 9.37 5.55 12.93 9.73 3.55 4.18 6.33 9.24 8.33 15.19 2 5.95 3 12.48 3 19.59 0 7.2-.98 13.77-2.93 19.72-1.96 5.95-4.73 11.02-8.33 15.19-3.6 4.18-7.93 7.42-12.99 9.73-5.07 2.31-10.67 3.46-16.8 3.46zm0-15.85c7.2 0 12.88-2.89 17.06-8.66 4.17-5.77 6.26-13.64 6.26-23.59 0-9.77-2.11-17.57-6.33-23.39-4.22-5.82-9.88-8.73-16.99-8.73-7.11 0-12.75 2.91-16.92 8.73-4.18 5.82-6.26 13.62-6.26 23.39 0 9.95 2.09 17.81 6.26 23.59 4.17 5.77 9.81 8.66 16.92 8.66z"/><g><path d="M158.06 124.75c-3.29 0-5.95-1.14-7.96-3.43s-3.02-5.28-3.02-8.99c0-3.66 1-6.63 3.02-8.92 2.01-2.29 4.67-3.43 7.96-3.43 3.25 0 5.88 1.14 7.89 3.43s3.02 5.26 3.02 8.92c0 3.71-1 6.7-2.98 8.99-1.99 2.29-4.63 3.43-7.93 3.43zm0-5.01c1.65 0 2.94-.66 3.88-1.99s1.41-3.13 1.41-5.42c0-2.24-.48-4.02-1.44-5.35s-2.24-1.99-3.84-1.99c-1.65 0-2.94.66-3.88 1.99s-1.43 3.11-1.48 5.35c.05 2.29.53 4.09 1.44 5.42.92 1.33 2.22 1.99 3.91 1.99zm4.32 28.68h-7l27.17-48.03h7.07l-27.24 48.03zm25.18.34c-3.29 0-5.95-1.14-7.96-3.43s-3.02-5.28-3.02-8.99c0-3.66 1.01-6.63 3.02-8.92s4.67-3.43 7.96-3.43c3.25 0 5.88 1.14 7.89 3.43s3.02 5.26 3.02 8.92c0 3.71-.99 6.7-2.98 8.99s-4.63 3.43-7.93 3.43zm0-5.01c1.65 0 2.94-.66 3.88-1.99s1.41-3.13 1.41-5.42c0-2.24-.48-4.02-1.44-5.35s-2.24-1.99-3.84-1.99c-1.65 0-2.94.66-3.88 1.99s-1.43 3.11-1.47 5.35c.04 2.29.53 4.09 1.44 5.42.91 1.33 2.21 1.99 3.9 1.99z" fill="#d20000" stroke="#272727" stroke-width="1.585" stroke-miterlimit="10"/></g></svg>