<svg version="1.1" id="Layer_1" xmlns="http://www.w3.org/2000/svg" x="0" y="0" viewBox="0 0 200 200" xml:space="preserve"><style>.st0{fill:#fff}</style><path class="st0" d="M40.51 49.23v99.97H20.94V69.08l-19.57 8v-17l26.71-10.85h12.43zM65.36 127.35c3.24 0 6 1.14 8.28 3.43 2.28 2.29 3.43 5.05 3.43 8.28 0 3.14-1.14 5.86-3.43 8.14-2.29 2.28-5.05 3.43-8.28 3.43-3.14 0-5.86-1.14-8.14-3.43-2.28-2.29-3.43-5-3.43-8.14 0-3.24 1.14-6 3.43-8.28 2.28-2.29 5-3.43 8.14-3.43zM91.35 101.64l2.43-52.41h64.41v16.42h-48.56l-1 23.28c2.95-1.05 5.97-1.81 9.07-2.29 3.09-.48 6.3-.71 9.64-.71 10.85 0 19.66 2.83 26.42 8.5 6.76 5.67 10.14 13.07 10.14 22.21 0 5.05-.98 9.66-2.93 13.85-1.95 4.19-4.71 7.78-8.28 10.78s-7.88 5.33-12.92 7c-5.05 1.67-10.57 2.5-16.57 2.5-7.14 0-13.9-1.14-20.28-3.43-6.38-2.29-12.05-5.62-17-10l11.85-13.28c4.38 3.62 8.59 6.21 12.64 7.78 4.05 1.57 8.5 2.36 13.35 2.36 6 0 10.85-1.52 14.57-4.57 3.71-3.05 5.57-7.04 5.57-12 0-4.76-2-8.64-6-11.64s-9.14-4.5-15.42-4.5c-2.95 0-6.02.36-9.21 1.07-3.19.71-6.26 1.69-9.21 2.93l-12.71-3.85z"/><g><path d="M148.67 148.97l17.87-23.68-17.42-22.88h14.21l10.28 13.85 10.19-13.85h13.76l-17.16 22.7 18.23 23.86h-14.3l-10.99-14.83-10.99 14.83h-13.68z" fill="#d20000" stroke="#272727" stroke-width="3.397" stroke-miterlimit="10"/></g></svg>