<?xml version="1.0" encoding="utf-8"?>
<!-- Generator: Adobe Illustrator 24.0.2, SVG Export Plug-In . SVG Version: 6.00 Build 0)  -->
<svg version="1.1" xmlns="http://www.w3.org/2000/svg" xmlns:xlink="http://www.w3.org/1999/xlink" x="0px" y="0px"
	 viewBox="0 0 1920 1080" style="enable-background:new 0 0 1920 1080;" xml:space="preserve">
<style type="text/css">
	.st0{display:none;}
	.st1{display:inline;}
	.st2{display:inline;clip-path:url(#SVGID_2_);}
	.st3{fill:none;stroke:#FC3F3F;stroke-width:0.6649;stroke-miterlimit:10;}
	.st4{fill:none;stroke:#FC3D3D;stroke-width:0.6649;stroke-miterlimit:10;}
	.st5{fill:none;stroke:#FC3B3B;stroke-width:0.6649;stroke-miterlimit:10;}
	.st6{fill:none;stroke:#FC3939;stroke-width:0.6649;stroke-miterlimit:10;}
	.st7{fill:none;stroke:#FC3737;stroke-width:0.6649;stroke-miterlimit:10;}
	.st8{fill:none;stroke:#FC3535;stroke-width:0.6649;stroke-miterlimit:10;}
	.st9{fill:none;stroke:#FD3333;stroke-width:0.6649;stroke-miterlimit:10;}
	.st10{fill:none;stroke:#FD3131;stroke-width:0.6649;stroke-miterlimit:10;}
	.st11{fill:none;stroke:#FD2F2F;stroke-width:0.6649;stroke-miterlimit:10;}
	.st12{fill:none;stroke:#FD2D2D;stroke-width:0.6649;stroke-miterlimit:10;}
	.st13{fill:none;stroke:#FD2B2B;stroke-width:0.6649;stroke-miterlimit:10;}
	.st14{fill:none;stroke:#FD2929;stroke-width:0.6649;stroke-miterlimit:10;}
	.st15{fill:none;stroke:#FD2727;stroke-width:0.6649;stroke-miterlimit:10;}
	.st16{fill:none;stroke:#FD2525;stroke-width:0.6649;stroke-miterlimit:10;}
	.st17{fill:none;stroke:#FD2323;stroke-width:0.6649;stroke-miterlimit:10;}
	.st18{fill:none;stroke:#FD2121;stroke-width:0.6649;stroke-miterlimit:10;}
	.st19{fill:none;stroke:#FE1E1E;stroke-width:0.6649;stroke-miterlimit:10;}
	.st20{fill:none;stroke:#FE1C1C;stroke-width:0.6649;stroke-miterlimit:10;}
	.st21{fill:none;stroke:#FE1A1A;stroke-width:0.6649;stroke-miterlimit:10;}
	.st22{fill:none;stroke:#FE1818;stroke-width:0.6649;stroke-miterlimit:10;}
	.st23{fill:none;stroke:#FE1616;stroke-width:0.6649;stroke-miterlimit:10;}
	.st24{fill:none;stroke:#FE1414;stroke-width:0.6649;stroke-miterlimit:10;}
	.st25{fill:none;stroke:#FE1212;stroke-width:0.6649;stroke-miterlimit:10;}
	.st26{fill:none;stroke:#FE1010;stroke-width:0.6649;stroke-miterlimit:10;}
	.st27{fill:none;stroke:#FE0E0E;stroke-width:0.6649;stroke-miterlimit:10;}
	.st28{fill:none;stroke:#FE0C0C;stroke-width:0.6649;stroke-miterlimit:10;}
	.st29{fill:none;stroke:#FF0A0A;stroke-width:0.6649;stroke-miterlimit:10;}
	.st30{fill:none;stroke:#FF0808;stroke-width:0.6649;stroke-miterlimit:10;}
	.st31{fill:none;stroke:#FF0606;stroke-width:0.6649;stroke-miterlimit:10;}
	.st32{fill:none;stroke:#FF0404;stroke-width:0.6649;stroke-miterlimit:10;}
	.st33{fill:none;stroke:#FF0202;stroke-width:0.6649;stroke-miterlimit:10;}
	.st34{fill:none;stroke:#FF0000;stroke-width:0.6649;stroke-miterlimit:10;}
	.st35{fill:none;stroke:#FF0101;stroke-width:0.6649;stroke-miterlimit:10;}
	.st36{fill:none;stroke:#FF0303;stroke-width:0.6649;stroke-miterlimit:10;}
	.st37{fill:none;stroke:#FF0505;stroke-width:0.6649;stroke-miterlimit:10;}
	.st38{fill:none;stroke:#FF0707;stroke-width:0.6649;stroke-miterlimit:10;}
	.st39{fill:none;stroke:#FF0909;stroke-width:0.6649;stroke-miterlimit:10;}
	.st40{fill:none;stroke:#FF0B0B;stroke-width:0.6649;stroke-miterlimit:10;}
	.st41{fill:none;stroke:#FF0C0C;stroke-width:0.6649;stroke-miterlimit:10;}
	.st42{fill:none;stroke:#FF0D0D;stroke-width:0.6649;stroke-miterlimit:10;}
	.st43{fill:none;stroke:#FF0E0E;stroke-width:0.6649;stroke-miterlimit:10;}
	.st44{fill:none;stroke:#FF0F0F;stroke-width:0.6649;stroke-miterlimit:10;}
	.st45{fill:none;stroke:#FF1010;stroke-width:0.6649;stroke-miterlimit:10;}
	.st46{fill:none;stroke:#FF1111;stroke-width:0.6649;stroke-miterlimit:10;}
	.st47{fill:none;stroke:#FF1212;stroke-width:0.6649;stroke-miterlimit:10;}
	.st48{fill:none;stroke:#FF1313;stroke-width:0.6649;stroke-miterlimit:10;}
	.st49{fill:none;stroke:#FF1414;stroke-width:0.6649;stroke-miterlimit:10;}
	.st50{fill:none;stroke:#FF1515;stroke-width:0.6649;stroke-miterlimit:10;}
	.st51{fill:none;stroke:#FF1616;stroke-width:0.6649;stroke-miterlimit:10;}
	.st52{fill:none;stroke:#FF1717;stroke-width:0.6649;stroke-miterlimit:10;}
	.st53{display:inline;clip-path:url(#SVGID_4_);}
	.st54{fill:none;stroke:#FC3F3F;stroke-width:0.3879;stroke-miterlimit:10;}
	.st55{fill:none;stroke:#FC3D3D;stroke-width:0.3879;stroke-miterlimit:10;}
	.st56{fill:none;stroke:#FC3B3B;stroke-width:0.3879;stroke-miterlimit:10;}
	.st57{fill:none;stroke:#FC3939;stroke-width:0.3879;stroke-miterlimit:10;}
	.st58{fill:none;stroke:#FC3737;stroke-width:0.3879;stroke-miterlimit:10;}
	.st59{fill:none;stroke:#FC3535;stroke-width:0.3879;stroke-miterlimit:10;}
	.st60{fill:none;stroke:#FD3333;stroke-width:0.3879;stroke-miterlimit:10;}
	.st61{fill:none;stroke:#FD3131;stroke-width:0.3879;stroke-miterlimit:10;}
	.st62{fill:none;stroke:#FD2F2F;stroke-width:0.3879;stroke-miterlimit:10;}
	.st63{fill:none;stroke:#FD2D2D;stroke-width:0.3879;stroke-miterlimit:10;}
	.st64{fill:none;stroke:#FD2B2B;stroke-width:0.3879;stroke-miterlimit:10;}
	.st65{fill:none;stroke:#FD2929;stroke-width:0.3879;stroke-miterlimit:10;}
	.st66{fill:none;stroke:#FD2727;stroke-width:0.3879;stroke-miterlimit:10;}
	.st67{fill:none;stroke:#FD2525;stroke-width:0.3879;stroke-miterlimit:10;}
	.st68{fill:none;stroke:#FD2323;stroke-width:0.3879;stroke-miterlimit:10;}
	.st69{fill:none;stroke:#FD2121;stroke-width:0.3879;stroke-miterlimit:10;}
	.st70{fill:none;stroke:#FE1E1E;stroke-width:0.3879;stroke-miterlimit:10;}
	.st71{fill:none;stroke:#FE1C1C;stroke-width:0.3879;stroke-miterlimit:10;}
	.st72{fill:none;stroke:#FE1A1A;stroke-width:0.3879;stroke-miterlimit:10;}
	.st73{fill:none;stroke:#FE1818;stroke-width:0.3879;stroke-miterlimit:10;}
	.st74{fill:none;stroke:#FE1616;stroke-width:0.3879;stroke-miterlimit:10;}
	.st75{fill:none;stroke:#FE1414;stroke-width:0.3879;stroke-miterlimit:10;}
	.st76{fill:none;stroke:#FE1212;stroke-width:0.3879;stroke-miterlimit:10;}
	.st77{fill:none;stroke:#FE1010;stroke-width:0.3879;stroke-miterlimit:10;}
	.st78{fill:none;stroke:#FE0E0E;stroke-width:0.3879;stroke-miterlimit:10;}
	.st79{fill:none;stroke:#FE0C0C;stroke-width:0.3879;stroke-miterlimit:10;}
	.st80{fill:none;stroke:#FF0A0A;stroke-width:0.3879;stroke-miterlimit:10;}
	.st81{fill:none;stroke:#FF0808;stroke-width:0.3879;stroke-miterlimit:10;}
	.st82{fill:none;stroke:#FF0606;stroke-width:0.3879;stroke-miterlimit:10;}
	.st83{fill:none;stroke:#FF0404;stroke-width:0.3879;stroke-miterlimit:10;}
	.st84{fill:none;stroke:#FF0202;stroke-width:0.3879;stroke-miterlimit:10;}
	.st85{fill:none;stroke:#FF0000;stroke-width:0.3879;stroke-miterlimit:10;}
	.st86{fill:none;stroke:#FF0101;stroke-width:0.3879;stroke-miterlimit:10;}
	.st87{fill:none;stroke:#FF0303;stroke-width:0.3879;stroke-miterlimit:10;}
	.st88{fill:none;stroke:#FF0505;stroke-width:0.3879;stroke-miterlimit:10;}
	.st89{fill:none;stroke:#FF0707;stroke-width:0.3879;stroke-miterlimit:10;}
	.st90{fill:none;stroke:#FF0909;stroke-width:0.3879;stroke-miterlimit:10;}
	.st91{fill:none;stroke:#FF0B0B;stroke-width:0.3879;stroke-miterlimit:10;}
	.st92{fill:none;stroke:#FF0C0C;stroke-width:0.3879;stroke-miterlimit:10;}
	.st93{fill:none;stroke:#FF0D0D;stroke-width:0.3879;stroke-miterlimit:10;}
	.st94{fill:none;stroke:#FF0E0E;stroke-width:0.3879;stroke-miterlimit:10;}
	.st95{fill:none;stroke:#FF0F0F;stroke-width:0.3879;stroke-miterlimit:10;}
	.st96{fill:none;stroke:#FF1010;stroke-width:0.3879;stroke-miterlimit:10;}
	.st97{fill:none;stroke:#FF1111;stroke-width:0.3879;stroke-miterlimit:10;}
	.st98{fill:none;stroke:#FF1212;stroke-width:0.3879;stroke-miterlimit:10;}
	.st99{fill:none;stroke:#FF1313;stroke-width:0.3879;stroke-miterlimit:10;}
	.st100{fill:none;stroke:#FF1414;stroke-width:0.3879;stroke-miterlimit:10;}
	.st101{fill:none;stroke:#FF1515;stroke-width:0.3879;stroke-miterlimit:10;}
	.st102{fill:none;stroke:#FF1616;stroke-width:0.3879;stroke-miterlimit:10;}
	.st103{fill:none;stroke:#FF1717;stroke-width:0.3879;stroke-miterlimit:10;}
	.st104{display:inline;clip-path:url(#SVGID_6_);}
	.st105{fill:none;stroke:#FC3F3F;stroke-width:0.4686;stroke-miterlimit:10;}
	.st106{fill:none;stroke:#FC3D3D;stroke-width:0.4686;stroke-miterlimit:10;}
	.st107{fill:none;stroke:#FC3B3B;stroke-width:0.4686;stroke-miterlimit:10;}
	.st108{fill:none;stroke:#FC3939;stroke-width:0.4686;stroke-miterlimit:10;}
	.st109{fill:none;stroke:#FC3737;stroke-width:0.4686;stroke-miterlimit:10;}
	.st110{fill:none;stroke:#FC3535;stroke-width:0.4686;stroke-miterlimit:10;}
	.st111{fill:none;stroke:#FD3333;stroke-width:0.4686;stroke-miterlimit:10;}
	.st112{fill:none;stroke:#FD3131;stroke-width:0.4686;stroke-miterlimit:10;}
	.st113{fill:none;stroke:#FD2F2F;stroke-width:0.4686;stroke-miterlimit:10;}
	.st114{fill:none;stroke:#FD2D2D;stroke-width:0.4686;stroke-miterlimit:10;}
	.st115{fill:none;stroke:#FD2B2B;stroke-width:0.4686;stroke-miterlimit:10;}
	.st116{fill:none;stroke:#FD2929;stroke-width:0.4686;stroke-miterlimit:10;}
	.st117{fill:none;stroke:#FD2727;stroke-width:0.4686;stroke-miterlimit:10;}
	.st118{fill:none;stroke:#FD2525;stroke-width:0.4686;stroke-miterlimit:10;}
	.st119{fill:none;stroke:#FD2323;stroke-width:0.4686;stroke-miterlimit:10;}
	.st120{fill:none;stroke:#FD2121;stroke-width:0.4686;stroke-miterlimit:10;}
	.st121{fill:none;stroke:#FE1E1E;stroke-width:0.4686;stroke-miterlimit:10;}
	.st122{fill:none;stroke:#FE1C1C;stroke-width:0.4686;stroke-miterlimit:10;}
	.st123{fill:none;stroke:#FE1A1A;stroke-width:0.4686;stroke-miterlimit:10;}
	.st124{fill:none;stroke:#FE1818;stroke-width:0.4686;stroke-miterlimit:10;}
	.st125{fill:none;stroke:#FE1616;stroke-width:0.4686;stroke-miterlimit:10;}
	.st126{fill:none;stroke:#FE1414;stroke-width:0.4686;stroke-miterlimit:10;}
	.st127{fill:none;stroke:#FE1212;stroke-width:0.4686;stroke-miterlimit:10;}
	.st128{fill:none;stroke:#FE1010;stroke-width:0.4686;stroke-miterlimit:10;}
	.st129{fill:none;stroke:#FE0E0E;stroke-width:0.4686;stroke-miterlimit:10;}
	.st130{fill:none;stroke:#FE0C0C;stroke-width:0.4686;stroke-miterlimit:10;}
	.st131{fill:none;stroke:#FF0A0A;stroke-width:0.4686;stroke-miterlimit:10;}
	.st132{fill:none;stroke:#FF0808;stroke-width:0.4686;stroke-miterlimit:10;}
	.st133{fill:none;stroke:#FF0606;stroke-width:0.4686;stroke-miterlimit:10;}
	.st134{fill:none;stroke:#FF0404;stroke-width:0.4686;stroke-miterlimit:10;}
	.st135{fill:none;stroke:#FF0202;stroke-width:0.4686;stroke-miterlimit:10;}
	.st136{fill:none;stroke:#FF0000;stroke-width:0.4686;stroke-miterlimit:10;}
	.st137{fill:none;stroke:#FF0101;stroke-width:0.4686;stroke-miterlimit:10;}
	.st138{fill:none;stroke:#FF0303;stroke-width:0.4686;stroke-miterlimit:10;}
	.st139{fill:none;stroke:#FF0505;stroke-width:0.4686;stroke-miterlimit:10;}
	.st140{fill:none;stroke:#FF0707;stroke-width:0.4686;stroke-miterlimit:10;}
	.st141{fill:none;stroke:#FF0909;stroke-width:0.4686;stroke-miterlimit:10;}
	.st142{fill:none;stroke:#FF0B0B;stroke-width:0.4686;stroke-miterlimit:10;}
	.st143{fill:none;stroke:#FF0C0C;stroke-width:0.4686;stroke-miterlimit:10;}
	.st144{fill:none;stroke:#FF0D0D;stroke-width:0.4686;stroke-miterlimit:10;}
	.st145{fill:none;stroke:#FF0E0E;stroke-width:0.4686;stroke-miterlimit:10;}
	.st146{fill:none;stroke:#FF0F0F;stroke-width:0.4686;stroke-miterlimit:10;}
	.st147{fill:none;stroke:#FF1010;stroke-width:0.4686;stroke-miterlimit:10;}
	.st148{fill:none;stroke:#FF1111;stroke-width:0.4686;stroke-miterlimit:10;}
	.st149{fill:none;stroke:#FF1212;stroke-width:0.4686;stroke-miterlimit:10;}
	.st150{fill:none;stroke:#FF1313;stroke-width:0.4686;stroke-miterlimit:10;}
	.st151{fill:none;stroke:#FF1414;stroke-width:0.4686;stroke-miterlimit:10;}
	.st152{fill:none;stroke:#FF1515;stroke-width:0.4686;stroke-miterlimit:10;}
	.st153{fill:none;stroke:#FF1616;stroke-width:0.4686;stroke-miterlimit:10;}
	.st154{fill:none;stroke:#FF1717;stroke-width:0.4686;stroke-miterlimit:10;}
	.st155{opacity:0.2;}
	.st156{clip-path:url(#SVGID_8_);}
	.st157{fill:none;stroke:#E5E5E5;stroke-width:1.1603;stroke-miterlimit:10;}
	.st158{fill:none;stroke:#E4E4E4;stroke-width:1.1603;stroke-miterlimit:10;}
	.st159{fill:none;stroke:#E3E3E3;stroke-width:1.1603;stroke-miterlimit:10;}
	.st160{fill:none;stroke:#E2E2E2;stroke-width:1.1603;stroke-miterlimit:10;}
	.st161{fill:none;stroke:#E1E1E1;stroke-width:1.1603;stroke-miterlimit:10;}
	.st162{fill:none;stroke:#E0E0E0;stroke-width:1.1603;stroke-miterlimit:10;}
	.st163{fill:none;stroke:#DFDFDF;stroke-width:1.1603;stroke-miterlimit:10;}
	.st164{fill:none;stroke:#DEDEDE;stroke-width:1.1603;stroke-miterlimit:10;}
	.st165{fill:none;stroke:#DDDDDD;stroke-width:1.1603;stroke-miterlimit:10;}
	.st166{fill:none;stroke:#DCDCDC;stroke-width:1.1603;stroke-miterlimit:10;}
	.st167{fill:none;stroke:#DBDBDB;stroke-width:1.1603;stroke-miterlimit:10;}
	.st168{fill:none;stroke:#DADADA;stroke-width:1.1603;stroke-miterlimit:10;}
	.st169{fill:none;stroke:#D9D9D9;stroke-width:1.1603;stroke-miterlimit:10;}
	.st170{fill:none;stroke:#D8D8D8;stroke-width:1.1603;stroke-miterlimit:10;}
	.st171{fill:none;stroke:#D7D7D7;stroke-width:1.1603;stroke-miterlimit:10;}
	.st172{fill:none;stroke:#D6D6D6;stroke-width:1.1603;stroke-miterlimit:10;}
	.st173{fill:#282828;}
	.st174{fill:#353535;}
	.st175{fill:#E8E7E7;}
	.st176{fill:#3A3A3A;}
	.st177{fill:#4F4F4F;}
	.st178{fill:#F10000;}
	.st179{fill:#CCCCCC;}
	.st180{fill:#303030;}
	.st181{fill:#D68F8B;}
	.st182{fill:#D5A49F;}
	.st183{fill:#191919;}
	.st184{opacity:0.35;fill:#0C0C0C;}
</style>
<g id="Layer_3">
</g>
<g id="Layer_2">
	<g class="st0">
		<defs>
			<circle id="SVGID_1_" cx="1045" cy="228" r="79"/>
		</defs>
		<clipPath id="SVGID_2_" class="st1">
			<use xlink:href="#SVGID_1_"  style="overflow:visible;"/>
		</clipPath>
		<g class="st2">
			<path class="st3" d="M974.75,132.26c0,0,24.12-52.33,76.45,0s72,0,72,0"/>
			<path class="st4" d="M974.29,135.06c0,0,23.85-51.26,76.5,0.1c52.65,51.36,72.02,0.65,72.52,0.14"/>
			<path class="st5" d="M973.84,137.86c0,0,23.57-50.2,76.55,0.19c52.97,50.39,72.05,1.29,73.05,0.29"/>
			<path class="st6" d="M973.38,140.66c0,0,23.3-49.13,76.59,0.29c53.3,49.42,72.07,1.94,73.58,0.43"/>
			<path class="st7" d="M972.93,143.46c0,0,23.02-48.07,76.64,0.38c53.62,48.45,72.09,2.59,74.1,0.57"/>
			<path class="st8" d="M972.47,146.26c0,0,22.75-47,76.69,0.48c53.94,47.48,72.12,3.23,74.63,0.72"/>
			<path class="st9" d="M972.02,149.06c0,0,22.47-45.94,76.74,0.57c54.27,46.51,72.14,3.88,75.16,0.86"/>
			<path class="st10" d="M971.56,151.87c0,0,22.2-44.87,76.79,0.67s72.16,4.53,75.68,1.01"/>
			<path class="st11" d="M971.11,154.67c0,0,21.92-43.8,76.83,0.77c54.91,44.57,72.19,5.17,76.21,1.15"/>
			<path class="st12" d="M970.65,157.47c0,0,21.64-42.74,76.88,0.86s72.21,5.82,76.74,1.29"/>
			<path class="st13" d="M970.2,160.27c0,0,21.37-41.67,76.93,0.96c55.56,42.63,72.24,6.46,77.26,1.44"/>
			<path class="st14" d="M969.74,163.07c0,0,21.09-40.61,76.98,1.05c55.88,41.66,72.26,7.11,77.79,1.58"/>
			<path class="st15" d="M969.29,165.87c0,0,20.82-39.54,77.03,1.15s72.28,7.76,78.32,1.72"/>
			<path class="st16" d="M968.83,168.67c0,0,20.54-38.48,77.07,1.25c56.53,39.72,72.31,8.4,78.84,1.87"/>
			<path class="st17" d="M968.38,171.48c0,0,20.27-37.41,77.12,1.34c56.85,38.75,72.33,9.05,79.37,2.01"/>
			<path class="st18" d="M967.92,174.28c0,0,19.99-36.35,77.17,1.44c57.18,37.78,72.36,9.7,79.9,2.15"/>
			<path class="st19" d="M967.47,177.08c0,0,19.72-35.28,77.22,1.53c57.5,36.81,72.38,10.34,80.43,2.3"/>
			<path class="st20" d="M967.01,179.88c0,0,19.44-34.21,77.26,1.63c57.82,35.84,72.4,10.99,80.95,2.44"/>
			<path class="st21" d="M966.56,182.68c0,0,19.17-33.15,77.31,1.72c58.15,34.87,72.43,11.64,81.48,2.59"/>
			<path class="st22" d="M966.1,185.48c0,0,18.89-32.08,77.36,1.82c58.47,33.9,72.45,12.28,82.01,2.73"/>
			<path class="st23" d="M965.65,188.28c0,0,18.62-31.02,77.41,1.92c58.79,32.93,72.48,12.93,82.53,2.87"/>
			<path class="st24" d="M965.19,191.09c0,0,18.34-29.95,77.46,2.01s72.5,13.58,83.06,3.02"/>
			<path class="st25" d="M964.74,193.89c0,0,18.07-28.89,77.5,2.11c59.44,30.99,72.52,14.22,83.59,3.16"/>
			<path class="st26" d="M964.28,196.69c0,0,17.79-27.82,77.55,2.2s72.55,14.87,84.11,3.3"/>
			<path class="st27" d="M963.83,199.49c0,0,17.51-26.76,77.6,2.3s72.57,15.52,84.64,3.45"/>
			<path class="st28" d="M963.37,202.29c0,0,17.24-25.69,77.65,2.39c60.41,28.09,72.6,16.16,85.17,3.59"/>
			<path class="st29" d="M962.92,205.09c0,0,16.96-24.63,77.7,2.49s72.62,16.81,85.69,3.74"/>
			<path class="st30" d="M962.46,207.89c0,0,16.69-23.56,77.74,2.59s72.64,17.45,86.22,3.88"/>
			<path class="st31" d="M962.01,210.69c0,0,16.41-22.49,77.79,2.68s72.67,18.1,86.75,4.02"/>
			<path class="st32" d="M961.56,213.5c0,0,16.14-21.43,77.84,2.78c61.7,24.21,72.69,18.75,87.27,4.17"/>
			<path class="st33" d="M961.1,216.3c0,0,15.86-20.36,77.89,2.87s72.72,19.39,87.8,4.31"/>
			<path class="st34" d="M960.65,219.1c0,0,15.59-19.3,77.94,2.97s72.74,20.04,88.33,4.45"/>
			<path class="st35" d="M961.1,221.52c0,0,15.92-18.14,77.4,3.51c61.04,21.61,71.92,19.35,87.81,3.76"/>
			<path class="st35" d="M961.56,223.94c0,0,16.26-16.98,76.86,4.06c59.74,20.96,71.1,18.67,87.29,3.08"/>
			<path class="st33" d="M962.01,226.35c0,0,16.65-15.96,76.33,4.6c58.48,20.16,70.28,17.98,86.77,2.39"/>
			<path class="st36" d="M962.46,228.77c0,0,17-14.85,75.79,5.15c57.19,19.46,69.46,17.29,86.26,1.7"/>
			<path class="st32" d="M962.92,231.19c0,0,17.35-13.74,75.25,5.69c55.9,18.76,68.64,16.6,85.74,1.01"/>
			<path class="st32" d="M963.37,233.61c0,0,17.7-12.62,74.72,6.24c54.61,18.06,67.81,15.92,85.22,0.32"/>
			<path class="st37" d="M963.83,236.03c0,0,18.05-11.5,74.18,6.78c53.31,17.37,66.99,15.23,84.7-0.37"/>
			<path class="st31" d="M964.28,238.44c0,0,18.4-10.38,73.65,7.33c52.02,16.68,66.17,14.54,84.19-1.05"/>
			<path class="st38" d="M964.74,240.86c0,0,18.75-9.26,73.11,7.87c50.72,15.99,65.35,13.85,83.67-1.74"/>
			<path class="st38" d="M965.19,243.28c0,0,19.09-8.14,72.57,8.42c49.42,15.3,64.53,13.17,83.15-2.43"/>
			<path class="st30" d="M965.65,245.7c0,0,19.44-7.02,72.04,8.96c48.12,14.62,63.71,12.48,82.63-3.12"/>
			<path class="st39" d="M966.1,248.12c0,0,19.78-5.89,71.5,9.51c46.82,13.94,62.89,11.79,82.12-3.81"/>
			<path class="st29" d="M966.56,250.54c0,0,20.12-4.76,70.97,10.05c45.52,13.26,62.07,11.1,81.6-4.5"/>
			<path class="st29" d="M967.01,252.95c0,0,20.46-3.63,70.43,10.6c44.22,12.59,61.25,10.42,81.08-5.19"/>
			<path class="st40" d="M967.47,255.37c0,0,20.8-2.49,69.89,11.14c42.91,11.91,60.43,9.73,80.56-5.87"/>
			<path class="st41" d="M967.92,257.79c0,0,21.14-1.35,69.36,11.69c41.61,11.25,59.61,9.04,80.05-6.56"/>
			<path class="st42" d="M968.38,260.21c0,0,21.48-0.21,68.82,12.23c40.3,10.59,58.79,8.35,79.53-7.25"/>
			<path class="st42" d="M968.83,262.63c0,0,21.81,0.94,68.29,12.78c38.99,9.93,57.97,7.67,79.01-7.94"/>
			<path class="st43" d="M969.29,265.05c0,0,22.15,2.1,67.75,13.32c37.68,9.27,57.14,6.98,78.49-8.63"/>
			<path class="st44" d="M969.74,267.46c0,0,22.48,3.25,67.21,13.87c36.37,8.63,56.32,6.29,77.98-9.32"/>
			<path class="st45" d="M970.2,269.88c0,0,22.81,4.42,66.68,14.41c35.05,7.98,55.5,5.6,77.46-10"/>
			<path class="st45" d="M970.65,272.3c0,0,23.13,5.59,66.14,14.96c33.74,7.35,54.68,4.92,76.94-10.69"/>
			<path class="st46" d="M971.11,274.72c0,0,23.46,6.77,65.61,15.5c32.42,6.72,53.86,4.23,76.43-11.38"/>
			<path class="st47" d="M971.56,277.14c0,0,23.79,7.96,65.07,16.04c31.1,6.09,53.04,3.54,75.91-12.07"/>
			<path class="st48" d="M972.02,279.56c0,0,24.11,9.16,64.53,16.59c29.78,5.47,52.22,2.85,75.39-12.76"/>
			<path class="st48" d="M972.47,281.97c0,0,24.43,10.37,64,17.13c28.46,4.87,51.4,2.17,74.87-13.45"/>
			<path class="st49" d="M972.93,284.39c0,0,24.75,11.6,63.46,17.68c27.14,4.27,50.58,1.48,74.36-14.14"/>
			<path class="st50" d="M973.38,286.81c0,0,25.07,12.84,62.93,18.22c25.82,3.67,49.76,0.79,73.84-14.82"/>
			<path class="st51" d="M973.84,289.23c0,0,25.39,14.1,62.39,18.77c24.5,3.09,48.94,0.1,73.32-15.51"/>
			<path class="st51" d="M974.29,291.65c0,0,25.71,15.38,61.85,19.31c23.19,2.52,48.12-0.58,72.8-16.2"/>
			<path class="st52" d="M974.75,294.06c0,0,68.29,43.79,133.6,2.97"/>
		</g>
	</g>
	<g class="st0">
		<defs>
			<circle id="SVGID_3_" cx="892" cy="250" r="45"/>
		</defs>
		<clipPath id="SVGID_4_" class="st1">
			<use xlink:href="#SVGID_3_"  style="overflow:visible;"/>
		</clipPath>
		<g class="st53">
			<path class="st54" d="M855.23,196.04c0,0,14.07-30.53,44.6,0c30.53,30.53,42,0,42,0"/>
			<path class="st55" d="M854.96,197.67c0,0,13.91-29.91,44.63,0.06c30.72,29.96,42.02,0.38,42.31,0.08"/>
			<path class="st56" d="M854.7,199.31c0,0,13.75-29.29,44.66,0.11s42.03,0.75,42.62,0.17"/>
			<path class="st57" d="M854.43,200.94c0,0,13.59-28.66,44.69,0.17s42.05,1.13,42.93,0.25"/>
			<path class="st58" d="M854.17,202.57c0,0,13.43-28.04,44.71,0.22c31.28,28.27,42.06,1.51,43.23,0.34"/>
			<path class="st59" d="M853.9,204.21c0,0,13.27-27.42,44.74,0.28s42.07,1.89,43.54,0.42"/>
			<path class="st60" d="M853.64,205.84c0,0,13.11-26.8,44.77,0.34s42.09,2.26,43.85,0.5"/>
			<path class="st61" d="M853.37,207.48c0,0,12.95-26.18,44.8,0.39c31.85,26.57,42.1,2.64,44.16,0.59"/>
			<path class="st62" d="M853.1,209.11c0,0,12.79-25.56,44.83,0.45c32.04,26,42.12,3.02,44.46,0.67"/>
			<path class="st63" d="M852.84,210.75c0,0,12.63-24.93,44.85,0.5s42.13,3.39,44.77,0.75"/>
			<path class="st64" d="M852.57,212.38c0,0,12.47-24.31,44.88,0.56c32.41,24.87,42.14,3.77,45.08,0.84"/>
			<path class="st65" d="M852.31,214.01c0,0,12.31-23.69,44.91,0.61c32.6,24.31,42.16,4.15,45.38,0.92"/>
			<path class="st66" d="M852.04,215.65c0,0,12.15-23.07,44.94,0.67s42.17,4.53,45.69,1.01"/>
			<path class="st67" d="M851.78,217.28c0,0,11.99-22.45,44.97,0.73s42.19,4.9,46,1.09"/>
			<path class="st68" d="M851.51,218.92c0,0,11.82-21.83,44.99,0.78c33.17,22.61,42.2,5.28,46.31,1.17"/>
			<path class="st69" d="M851.25,220.55c0,0,11.66-21.2,45.02,0.84s42.21,5.66,46.61,1.26"/>
			<path class="st70" d="M850.98,222.19c0,0,11.5-20.58,45.05,0.89s42.23,6.03,46.92,1.34"/>
			<path class="st71" d="M850.72,223.82c0,0,11.34-19.96,45.08,0.95c33.73,20.91,42.24,6.41,47.23,1.42"/>
			<path class="st72" d="M850.45,225.46c0,0,11.18-19.34,45.11,1.01c33.92,20.35,42.26,6.79,47.54,1.51"/>
			<path class="st73" d="M850.18,227.09c0,0,11.02-18.72,45.13,1.06s42.27,7.17,47.84,1.59"/>
			<path class="st74" d="M849.92,228.72c0,0,10.86-18.1,45.16,1.12s42.28,7.54,48.15,1.68"/>
			<path class="st75" d="M849.65,230.36c0,0,10.7-17.48,45.19,1.17c34.49,18.65,42.3,7.92,48.46,1.76"/>
			<path class="st76" d="M849.39,231.99c0,0,10.54-16.85,45.22,1.23s42.31,8.3,48.77,1.84"/>
			<path class="st77" d="M849.12,233.63c0,0,10.38-16.23,45.25,1.29s42.33,8.67,49.07,1.93"/>
			<path class="st78" d="M848.86,235.26c0,0,10.22-15.61,45.27,1.34c35.05,16.95,42.34,9.05,49.38,2.01"/>
			<path class="st79" d="M848.59,236.9c0,0,10.06-14.99,45.3,1.4c35.24,16.39,42.35,9.43,49.69,2.1"/>
			<path class="st80" d="M848.33,238.53c0,0,9.9-14.37,45.33,1.45c35.43,15.82,42.37,9.81,49.99,2.18"/>
			<path class="st81" d="M848.06,240.16c0,0,9.74-13.75,45.36,1.51c35.62,15.25,42.38,10.18,50.3,2.26"/>
			<path class="st82" d="M847.8,241.8c0,0,9.58-13.12,45.38,1.56c35.81,14.69,42.4,10.56,50.61,2.35"/>
			<path class="st83" d="M847.53,243.43c0,0,9.42-12.5,45.41,1.62c36,14.12,42.41,10.94,50.92,2.43"/>
			<path class="st84" d="M847.27,245.07c0,0,9.25-11.88,45.44,1.68c36.19,13.56,42.42,11.31,51.22,2.51"/>
			<path class="st85" d="M847,246.7c0,0,9.09-11.26,45.47,1.73c36.37,12.99,42.44,11.69,51.53,2.6"/>
			<path class="st86" d="M847.27,248.11c0,0,9.29-10.58,45.15,2.05c35.61,12.61,41.96,11.29,51.23,2.2"/>
			<path class="st86" d="M847.53,249.52c0,0,9.49-9.9,44.84,2.37c34.85,12.23,41.48,10.89,50.93,1.8"/>
			<path class="st84" d="M847.8,250.93c0,0,9.71-9.31,44.53,2.69c34.12,11.76,41,10.49,50.63,1.39"/>
			<path class="st87" d="M848.06,252.35c0,0,9.92-8.67,44.21,3c33.37,11.35,40.52,10.09,50.33,0.99"/>
			<path class="st83" d="M848.33,253.76c0,0,10.12-8.02,43.9,3.32c32.61,10.95,40.05,9.69,50.03,0.59"/>
			<path class="st83" d="M848.59,255.17c0,0,10.32-7.36,43.59,3.64c31.86,10.54,39.57,9.29,49.73,0.19"/>
			<path class="st88" d="M848.86,256.58c0,0,10.53-6.71,43.27,3.96c31.1,10.13,39.09,8.89,49.43-0.21"/>
			<path class="st82" d="M849.12,257.99c0,0,10.73-6.06,42.96,4.27c30.35,9.73,38.61,8.49,49.13-0.61"/>
			<path class="st89" d="M849.39,259.4c0,0,10.93-5.41,42.64,4.59c29.59,9.33,38.13,8.09,48.82-1.02"/>
			<path class="st89" d="M849.65,260.81c0,0,11.13-4.75,42.33,4.91c28.84,8.93,37.66,7.69,48.52-1.42"/>
			<path class="st81" d="M849.92,262.22c0,0,11.33-4.1,42.02,5.23c28.08,8.53,37.18,7.28,48.22-1.82"/>
			<path class="st90" d="M850.18,263.63c0,0,11.53-3.44,41.7,5.55c27.32,8.13,36.7,6.88,47.92-2.22"/>
			<path class="st80" d="M850.45,265.04c0,0,11.73-2.78,41.39,5.86c26.56,7.74,36.22,6.48,47.62-2.62"/>
			<path class="st80" d="M850.72,266.45c0,0,11.93-2.12,41.07,6.18c25.8,7.35,35.74,6.08,47.32-3.02"/>
			<path class="st91" d="M850.98,267.86c0,0,12.13-1.46,40.76,6.5c25.04,6.96,35.27,5.68,47.02-3.43"/>
			<path class="st92" d="M851.25,269.28c0,0,12.32-0.79,40.45,6.82c24.28,6.57,34.79,5.28,46.72-3.83"/>
			<path class="st93" d="M851.51,270.69c0,0,12.52-0.12,40.13,7.13c23.51,6.18,34.31,4.88,46.42-4.23"/>
			<path class="st93" d="M851.78,272.1c0,0,12.71,0.55,39.82,7.45c22.75,5.8,33.83,4.48,46.12-4.63"/>
			<path class="st94" d="M852.04,273.51c0,0,12.91,1.22,39.5,7.77c21.99,5.42,33.35,4.08,45.82-5.03"/>
			<path class="st95" d="M852.31,274.92c0,0,13.1,1.89,39.19,8.09c21.22,5.04,32.87,3.68,45.52-5.43"/>
			<path class="st96" d="M852.57,276.33c0,0,13.29,2.57,38.88,8.4c20.45,4.66,32.4,3.28,45.22-5.83"/>
			<path class="st96" d="M852.84,277.74c0,0,13.48,3.26,38.56,8.72c19.69,4.29,31.92,2.88,44.92-6.24"/>
			<path class="st97" d="M853.1,279.15c0,0,13.67,3.94,38.25,9.04c18.92,3.92,31.44,2.48,44.61-6.64"/>
			<path class="st98" d="M853.37,280.56c0,0,13.86,4.64,37.93,9.36c18.15,3.56,30.96,2.08,44.31-7.04"/>
			<path class="st99" d="M853.64,281.97c0,0,14.05,5.34,37.62,9.68c17.38,3.2,30.48,1.67,44.01-7.44"/>
			<path class="st99" d="M853.9,283.38c0,0,14.24,6.04,37.31,9.99c16.61,2.85,30.01,1.27,43.71-7.84"/>
			<path class="st100" d="M854.17,284.79c0,0,14.42,6.76,36.99,10.31c15.84,2.5,29.53,0.87,43.41-8.24"/>
			<path class="st101" d="M854.43,286.21c0,0,14.61,7.48,36.68,10.63c15.07,2.15,29.05,0.47,43.11-8.65"/>
			<path class="st102" d="M854.7,287.62c0,0,14.8,8.22,36.37,10.95c14.3,1.81,28.57,0.07,42.81-9.05"/>
			<path class="st102" d="M854.96,289.03c0,0,14.98,8.96,36.05,11.26c13.53,1.48,28.09-0.33,42.51-9.45"/>
			<path class="st103" d="M855.23,290.44c0,0,39.84,25.55,77.95,1.73"/>
		</g>
	</g>
	<g class="st0">
		<defs>
			<circle id="SVGID_5_" cx="1444" cy="693" r="53"/>
		</defs>
		<clipPath id="SVGID_6_" class="st1">
			<use xlink:href="#SVGID_5_"  style="overflow:visible;"/>
		</clipPath>
		<g class="st104">
			<path class="st105" d="M1394.94,628.71c0,0,17-36.87,53.87,0c36.88,36.88,50.74,0,50.74,0"/>
			<path class="st106" d="M1394.62,630.68c0,0,16.81-36.12,53.91,0.07s50.75,0.46,51.11,0.1"/>
			<path class="st107" d="M1394.3,632.66c0,0,16.61-35.37,53.94,0.14s50.77,0.91,51.48,0.2"/>
			<path class="st108" d="M1393.98,634.63c0,0,16.42-34.62,53.98,0.2c37.56,34.83,50.79,1.37,51.85,0.3"/>
			<path class="st109" d="M1393.66,636.6c0,0,16.22-33.87,54.01,0.27c37.79,34.14,50.8,1.82,52.22,0.4"/>
			<path class="st110" d="M1393.34,638.58c0,0,16.03-33.12,54.04,0.34c38.01,33.46,50.82,2.28,52.59,0.51"/>
			<path class="st111" d="M1393.01,640.55c0,0,15.83-32.37,54.08,0.4s50.84,2.73,52.96,0.61"/>
			<path class="st112" d="M1392.69,642.53c0,0,15.64-31.62,54.11,0.47c38.47,32.09,50.85,3.19,53.33,0.71"/>
			<path class="st113" d="M1392.37,644.5c0,0,15.45-30.87,54.14,0.54c38.7,31.41,50.87,3.64,53.71,0.81"/>
			<path class="st114" d="M1392.05,646.48c0,0,15.25-30.12,54.18,0.61c38.92,30.72,50.89,4.1,54.08,0.91"/>
			<path class="st115" d="M1391.73,648.45c0,0,15.06-29.37,54.21,0.67s50.9,4.56,54.45,1.01"/>
			<path class="st116" d="M1391.41,650.42c0,0,14.86-28.62,54.25,0.74c39.38,29.36,50.92,5.01,54.82,1.11"/>
			<path class="st117" d="M1391.09,652.4c0,0,14.67-27.86,54.28,0.81c39.61,28.67,50.94,5.47,55.19,1.21"/>
			<path class="st118" d="M1390.77,654.37c0,0,14.48-27.11,54.31,0.88c39.84,27.99,50.96,5.92,55.56,1.32"/>
			<path class="st119" d="M1390.45,656.35c0,0,14.28-26.36,54.35,0.94c40.06,27.31,50.97,6.38,55.93,1.42"/>
			<path class="st120" d="M1390.13,658.32c0,0,14.09-25.61,54.38,1.01c40.29,26.62,50.99,6.83,56.3,1.52"/>
			<path class="st121" d="M1389.81,660.29c0,0,13.89-24.86,54.41,1.08c40.52,25.94,51.01,7.29,56.67,1.62"/>
			<path class="st122" d="M1389.49,662.27c0,0,13.7-24.11,54.45,1.15c40.75,25.26,51.02,7.74,57.05,1.72"/>
			<path class="st123" d="M1389.17,664.24c0,0,13.51-23.36,54.48,1.21s51.04,8.2,57.42,1.82"/>
			<path class="st124" d="M1388.85,666.22c0,0,13.31-22.61,54.52,1.28c41.2,23.89,51.06,8.66,57.79,1.92"/>
			<path class="st125" d="M1388.53,668.19c0,0,13.12-21.86,54.55,1.35c41.43,23.21,51.07,9.11,58.16,2.02"/>
			<path class="st126" d="M1388.21,670.16c0,0,12.92-21.11,54.58,1.42c41.66,22.52,51.09,9.57,58.53,2.13"/>
			<path class="st127" d="M1387.89,672.14c0,0,12.73-20.36,54.62,1.48s51.11,10.02,58.9,2.23"/>
			<path class="st128" d="M1387.56,674.11c0,0,12.54-19.61,54.65,1.55c42.11,21.16,51.12,10.48,59.27,2.33"/>
			<path class="st129" d="M1387.24,676.09c0,0,12.34-18.86,54.68,1.62c42.34,20.47,51.14,10.93,59.64,2.43"/>
			<path class="st130" d="M1386.92,678.06c0,0,12.15-18.1,54.72,1.69s51.16,11.39,60.02,2.53"/>
			<path class="st131" d="M1386.6,680.03c0,0,11.95-17.35,54.75,1.75s51.17,11.84,60.39,2.63"/>
			<path class="st132" d="M1386.28,682.01c0,0,11.76-16.6,54.79,1.82c43.03,18.42,51.19,12.3,60.76,2.73"/>
			<path class="st133" d="M1385.96,683.98c0,0,11.57-15.85,54.82,1.89c43.25,17.74,51.21,12.76,61.13,2.83"/>
			<path class="st134" d="M1385.64,685.96c0,0,11.37-15.1,54.85,1.96s51.23,13.21,61.5,2.94"/>
			<path class="st135" d="M1385.32,687.93c0,0,11.18-14.35,54.89,2.02s51.24,13.67,61.87,3.04"/>
			<path class="st136" d="M1385,689.91c0,0,10.98-13.6,54.92,2.09s51.26,14.12,62.24,3.14"/>
			<path class="st137" d="M1385.32,691.61c0,0,11.22-12.78,54.54,2.48c43.02,15.23,50.68,13.64,61.88,2.65"/>
			<path class="st137" d="M1385.64,693.31c0,0,11.46-11.96,54.16,2.86c42.1,14.77,50.1,13.15,61.52,2.17"/>
			<path class="st135" d="M1385.96,695.02c0,0,11.73-11.25,53.78,3.24c41.21,14.2,49.53,12.67,61.15,1.68"/>
			<path class="st138" d="M1386.28,696.72c0,0,11.98-10.47,53.4,3.63c40.3,13.71,48.95,12.19,60.79,1.2"/>
			<path class="st134" d="M1386.6,698.43c0,0,12.22-9.68,53.02,4.01c39.39,13.22,48.37,11.7,60.43,0.71"/>
			<path class="st134" d="M1386.92,700.13c0,0,12.47-8.9,52.65,4.4c38.48,12.73,47.79,11.22,60.06,0.23"/>
			<path class="st139" d="M1387.24,701.83c0,0,12.72-8.11,52.27,4.78c37.57,12.24,47.22,10.73,59.7-0.26"/>
			<path class="st133" d="M1387.56,703.54c0,0,12.96-7.32,51.89,5.16c36.66,11.75,46.64,10.25,59.34-0.74"/>
			<path class="st140" d="M1387.89,705.24c0,0,13.2-6.53,51.51,5.55c35.74,11.27,46.06,9.77,58.97-1.23"/>
			<path class="st140" d="M1388.21,706.95c0,0,13.45-5.74,51.13,5.93c34.83,10.79,45.48,9.28,58.61-1.71"/>
			<path class="st132" d="M1388.53,708.65c0,0,13.69-4.95,50.75,6.31c33.91,10.31,44.91,8.8,58.25-2.2"/>
			<path class="st141" d="M1388.85,710.35c0,0,13.93-4.15,50.37,6.7c33,9.83,44.33,8.31,57.88-2.68"/>
			<path class="st131" d="M1389.17,712.06c0,0,14.17-3.36,49.99,7.08c32.08,9.35,43.75,7.83,57.52-3.17"/>
			<path class="st131" d="M1389.49,713.76c0,0,14.41-2.56,49.61,7.47c31.16,8.87,43.17,7.35,57.16-3.65"/>
			<path class="st142" d="M1389.81,715.47c0,0,14.65-1.76,49.23,7.85c30.24,8.4,42.6,6.86,56.79-4.14"/>
			<path class="st143" d="M1390.13,717.17c0,0,14.89-0.96,48.85,8.23c29.32,7.93,42.02,6.38,56.43-4.62"/>
			<path class="st144" d="M1390.45,718.88c0,0,15.12-0.15,48.47,8.62c28.4,7.47,41.44,5.89,56.07-5.11"/>
			<path class="st144" d="M1390.77,720.58c0,0,15.36,0.66,48.1,9c27.48,7,40.86,5.41,55.7-5.59"/>
			<path class="st145" d="M1391.09,722.28c0,0,15.59,1.47,47.72,9.38c26.56,6.54,40.29,4.93,55.34-6.08"/>
			<path class="st146" d="M1391.41,723.99c0,0,15.82,2.29,47.34,9.77c25.63,6.09,39.71,4.44,54.98-6.56"/>
			<path class="st147" d="M1391.73,725.69c0,0,16.06,3.11,46.96,10.15c24.71,5.63,39.13,3.96,54.62-7.05"/>
			<path class="st147" d="M1392.05,727.4c0,0,16.29,3.93,46.58,10.54c23.78,5.18,38.55,3.48,54.25-7.53"/>
			<path class="st148" d="M1392.37,729.1c0,0,16.52,4.76,46.2,10.92c22.85,4.74,37.98,2.99,53.89-8.02"/>
			<path class="st149" d="M1392.69,730.8c0,0,16.74,5.6,45.82,11.3c21.92,4.3,37.4,2.51,53.53-8.5"/>
			<path class="st150" d="M1393.01,732.51c0,0,16.97,6.45,45.44,11.69c21,3.87,36.82,2.02,53.16-8.99"/>
			<path class="st150" d="M1393.34,734.21c0,0,17.2,7.3,45.06,12.07c20.07,3.44,36.24,1.54,52.8-9.47"/>
			<path class="st151" d="M1393.66,735.92c0,0,17.42,8.16,44.68,12.45c19.14,3.01,35.67,1.06,52.44-9.96"/>
			<path class="st152" d="M1393.98,737.62c0,0,17.65,9.04,44.3,12.84c18.21,2.6,35.09,0.57,52.07-10.44"/>
			<path class="st153" d="M1394.3,739.33c0,0,17.87,9.92,43.92,13.22c17.28,2.19,34.51,0.09,51.71-10.93"/>
			<path class="st153" d="M1394.62,741.03c0,0,18.1,10.83,43.55,13.61c16.35,1.79,33.93-0.4,51.35-11.41"/>
			<path class="st154" d="M1394.94,742.73c0,0,48.12,30.86,94.15,2.09"/>
		</g>
	</g>
</g>
<g id="Layer_1">
	<g>
		<ellipse class="st155" cx="883.05" cy="1035.64" rx="424.97" ry="16.14"/>
		<g>
			<defs>
				<path id="SVGID_7_" d="M601,43.78c4.31,2.09,69.42,36.66,74.04,37.91c57.52,15.58,323.73,124.47,509.25,35.86
					c232.28-110.95,423.18-39.45,530.77,66.35c107.59,105.79,87.86,279.73,71.73,324.56c-73.46,204.07-294.52,342.18-476.97,319.41
					c-169.05-21.1-180.39-161.6-374.76-172.37c-38.78-2.15-194.4-10.77-310.21,28.69c-13.42,4.57-52.12,18.59-103.87,17.09
					c-39.46-1.14-71.08-13.64-109.13-25.86c-155.32-49.91-213.36-117.35-241.79-161.08c-67.4-103.66-93.77-256.61,104.54-435.08
					c62.06-55.85,146.15-81.12,228.4-66.84C533.78,17.77,567.19,27.41,601,43.78z"/>
			</defs>
			<clipPath id="SVGID_8_">
				<use xlink:href="#SVGID_7_"  style="overflow:visible;"/>
			</clipPath>
			<g class="st156">
				<path class="st157" d="M1856.77-81.48c0,0,466.86,261.79-63.49,673.15s-59.79,633.94-59.79,633.94"/>
				<path class="st157" d="M1846.94-84.02c0,0,463.16,260.48-63.85,673.28s-62.1,633.79-60.47,635.67"/>
				<path class="st157" d="M1837.11-86.57c0,0,459.45,259.17-64.21,673.41s-64.41,633.64-61.15,637.39"/>
				<path class="st158" d="M1827.27-89.11c0,0,455.74,257.85-64.56,673.54s-66.72,633.48-61.83,639.11"/>
				<path class="st158" d="M1817.44-91.66c0,0,452.04,256.54-64.92,673.66s-69.03,633.33-62.51,640.83"/>
				<path class="st158" d="M1807.61-94.2c0,0,448.33,255.23-65.27,673.79s-71.34,633.18-63.19,642.56"/>
				<path class="st158" d="M1797.78-96.75c0,0,444.62,253.92-65.63,673.92s-73.65,633.02-63.87,644.28"/>
				<path class="st158" d="M1787.95-99.29c0,0,440.92,252.6-65.99,674.04s-75.96,632.87-64.55,646"/>
				<path class="st158" d="M1778.12-101.84c0,0,437.21,251.29-66.34,674.17s-78.27,632.72-65.23,647.73"/>
				<path class="st159" d="M1768.29-104.38c0,0,433.5,249.98-66.7,674.3s-80.58,632.57-65.91,649.45"/>
				<path class="st159" d="M1758.46-106.93c0,0,429.8,248.66-67.06,674.42s-82.89,632.41-66.58,651.17"/>
				<path class="st159" d="M1748.63-109.47c0,0,426.09,247.35-67.41,674.55s-85.2,632.26-67.26,652.9"/>
				<path class="st159" d="M1738.79-112.02c0,0,422.38,246.04-67.77,674.68s-87.51,632.11-67.94,654.62"/>
				<path class="st159" d="M1728.96-114.56c0,0,418.68,244.73-68.12,674.8s-89.82,631.96-68.62,656.34"/>
				<path class="st160" d="M1719.13-117.11c0,0,414.97,243.41-68.48,674.93s-92.13,631.8-69.3,658.07"/>
				<path class="st160" d="M1709.3-119.65c0,0,411.26,242.1-68.84,675.06s-94.44,631.65-69.98,659.79"/>
				<path class="st160" d="M1699.47-122.2c0,0,407.56,240.79-69.19,675.18s-96.75,631.5-70.66,661.51"/>
				<path class="st160" d="M1689.64-124.74c0,0,403.85,239.48-69.55,675.31s-99.06,631.34-71.34,663.24"/>
				<path class="st160" d="M1679.81-127.29c0,0,400.14,238.16-69.91,675.44s-101.37,631.19-72.02,664.96"/>
				<path class="st161" d="M1669.98-129.83c0,0,396.44,236.85-70.26,675.56s-103.68,631.04-72.7,666.68"/>
				<path class="st161" d="M1660.14-132.37c0,0,392.73,235.54-70.62,675.69s-105.99,630.89-73.37,668.41"/>
				<path class="st161" d="M1650.31-134.92c0,0,389.02,234.22-70.97,675.82s-108.3,630.73-74.05,670.13"/>
				<path class="st161" d="M1640.48-137.46c0,0,385.32,232.91-71.33,675.94s-110.61,630.58-74.73,671.85"/>
				<path class="st161" d="M1630.65-140.01c0,0,381.61,231.6-71.69,676.07s-112.92,630.43-75.41,673.57"/>
				<path class="st161" d="M1620.82-142.55c0,0,377.9,230.29-72.04,676.2s-115.23,630.27-76.09,675.3"/>
				<path class="st162" d="M1610.99-145.1c0,0,374.2,228.97-72.4,676.32s-117.54,630.12-76.77,677.02"/>
				<path class="st162" d="M1601.16-147.64c0,0,370.49,227.66-72.76,676.45s-119.85,629.97-77.45,678.74"/>
				<path class="st162" d="M1591.33-150.19c0,0,366.78,226.35-73.11,676.58s-122.16,629.82-78.13,680.47"/>
				<path class="st162" d="M1581.49-152.73c0,0,363.08,225.04-73.47,676.71s-124.47,629.66-78.81,682.19"/>
				<path class="st162" d="M1571.66-155.28c0,0,359.37,223.72-73.82,676.83s-126.78,629.51-79.49,683.91"/>
				<path class="st163" d="M1561.83-157.82c0,0,355.66,222.41-74.18,676.96s-129.09,629.36-80.16,685.64"/>
				<path class="st163" d="M1552-160.37c0,0,351.96,221.1-74.54,677.09s-131.4,629.2-80.84,687.36"/>
				<path class="st163" d="M1542.17-162.91c0,0,348.25,219.78-74.89,677.21s-133.71,629.05-81.52,689.08"/>
				<path class="st163" d="M1532.34-165.46c0,0,344.54,218.47-75.25,677.34s-136.01,628.9-82.2,690.81"/>
				<path class="st163" d="M1522.51-168c0,0,340.83,217.16-75.61,677.47s-138.32,628.75-82.88,692.53"/>
				<path class="st163" d="M1512.68-170.55c0,0,337.13,215.85-75.96,677.59s-140.63,628.59-83.56,694.25"/>
				<path class="st164" d="M1502.84-173.09c0,0,333.42,214.53-76.32,677.72s-142.94,628.44-84.24,695.98"/>
				<path class="st164" d="M1493.01-175.64c0,0,329.71,213.22-76.67,677.85s-145.25,628.29-84.92,697.7"/>
				<path class="st164" d="M1483.18-178.18c0,0,326.01,211.91-77.03,677.97s-147.56,628.13-85.6,699.42"/>
				<path class="st164" d="M1473.35-180.73c0,0,322.3,210.6-77.39,678.1s-149.87,627.98-86.28,701.15"/>
				<path class="st164" d="M1463.52-183.27c0,0,318.59,209.28-77.74,678.23s-152.18,627.83-86.95,702.87"/>
				<path class="st165" d="M1453.69-185.82c0,0,314.89,207.97-78.1,678.35s-154.49,627.68-87.63,704.59"/>
				<path class="st165" d="M1443.86-188.36c0,0,311.18,206.66-78.46,678.48s-156.8,627.52-88.31,706.32"/>
				<path class="st165" d="M1434.03-190.91c0,0,307.47,205.34-78.81,678.61s-159.11,627.37-88.99,708.04"/>
				<path class="st165" d="M1424.19-193.45c0,0,303.77,204.03-79.17,678.73s-161.42,627.22-89.67,709.76"/>
				<path class="st165" d="M1414.36-196c0,0,300.06,202.72-79.53,678.86s-163.73,627.06-90.35,711.48"/>
				<path class="st166" d="M1404.53-198.54c0,0,296.35,201.41-79.88,678.99s-166.04,626.91-91.03,713.21"/>
				<path class="st166" d="M1394.7-201.09c0,0,292.65,200.09-80.24,679.11s-168.35,626.76-91.71,714.93"/>
				<path class="st166" d="M1384.87-203.63c0,0,288.94,198.78-80.59,679.24s-170.66,626.61-92.39,716.65"/>
				<path class="st166" d="M1375.04-206.18c0,0,285.23,197.47-80.95,679.37s-172.97,626.45-93.07,718.38"/>
				<path class="st166" d="M1365.21-208.72c0,0,281.53,196.16-81.31,679.49s-175.28,626.3-93.74,720.1"/>
				<path class="st166" d="M1355.38-211.27c0,0,277.82,194.84-81.66,679.62s-177.59,626.15-94.42,721.82"/>
				<path class="st167" d="M1345.54-213.81c0,0,274.11,193.53-82.02,679.75s-179.9,625.99-95.1,723.55"/>
				<path class="st167" d="M1335.71-216.36c0,0,270.41,192.22-82.38,679.88s-182.21,625.84-95.78,725.27"/>
				<path class="st167" d="M1325.88-218.9c0,0,266.7,190.9-82.73,680s-184.52,625.69-96.46,726.99"/>
				<path class="st167" d="M1316.05-221.45c0,0,262.99,189.59-83.09,680.13s-186.83,625.54-97.14,728.72"/>
				<path class="st167" d="M1306.22-223.99c0,0,259.29,188.28-83.44,680.26s-189.14,625.38-97.82,730.44"/>
				<path class="st168" d="M1296.39-226.54c0,0,255.58,186.97-83.8,680.38s-191.45,625.23-98.5,732.16"/>
				<path class="st168" d="M1286.56-229.08c0,0,251.87,185.65-84.16,680.51s-193.76,625.08-99.18,733.89"/>
				<path class="st168" d="M1276.73-231.63c0,0,248.17,184.34-84.51,680.64s-196.07,624.92-99.86,735.61"/>
				<path class="st168" d="M1266.89-234.17c0,0,244.46,183.03-84.87,680.76s-198.38,624.77-100.53,737.33"/>
				<path class="st168" d="M1257.06-236.72c0,0,240.75,181.72-85.23,680.89s-200.69,624.62-101.21,739.06"/>
				<path class="st168" d="M1247.23-239.26c0,0,237.05,180.4-85.58,681.02s-203,624.47-101.89,740.78"/>
				<path class="st169" d="M1237.4-241.81c0,0,233.34,179.09-85.94,681.14s-205.31,624.31-102.57,742.5"/>
				<path class="st169" d="M1227.57-244.35c0,0,229.63,177.78-86.29,681.27s-207.62,624.16-103.25,744.23"/>
				<path class="st169" d="M1217.74-246.9c0,0,225.93,176.46-86.65,681.4s-209.93,624.01-103.93,745.95"/>
				<path class="st169" d="M1207.91-249.44c0,0,222.22,175.15-87.01,681.52s-212.24,623.86-104.61,747.67"/>
				<path class="st169" d="M1198.08-251.99c0,0,218.51,173.84-87.36,681.65s-214.55,623.7-105.29,749.39"/>
				<path class="st170" d="M1188.24-254.53c0,0,214.81,172.53-87.72,681.78s-216.86,623.55-105.97,751.12"/>
				<path class="st170" d="M1178.41-257.08c0,0,211.1,171.21-88.08,681.9s-219.16,623.4-106.65,752.84"/>
				<path class="st170" d="M1168.58-259.62c0,0,207.39,169.9-88.43,682.03s-221.47,623.24-107.32,754.56"/>
				<path class="st170" d="M1158.75-262.17c0,0,203.69,168.59-88.79,682.16s-223.78,623.09-108,756.29"/>
				<path class="st170" d="M1148.92-264.71c0,0,199.98,167.28-89.14,682.28s-226.09,622.94-108.68,758.01"/>
				<path class="st171" d="M1139.09-267.26c0,0,196.27,165.96-89.5,682.41s-228.4,622.79-109.36,759.73"/>
				<path class="st171" d="M1129.26-269.8c0,0,192.57,164.65-89.86,682.54s-230.71,622.63-110.04,761.46"/>
				<path class="st171" d="M1119.43-272.35c0,0,188.86,163.34-90.21,682.66S796.19,1032.8,918.49,1173.5"/>
				<path class="st171" d="M1109.59-274.89c0,0,185.15,162.02-90.57,682.79s-235.33,622.33-111.4,764.9"/>
				<path class="st171" d="M1099.76-277.44c0,0,181.45,160.71-90.93,682.92s-237.64,622.17-112.08,766.63"/>
				<path class="st171" d="M1089.93-279.98c0,0,177.74,159.4-91.28,683.05s-239.95,622.02-112.76,768.35"/>
				<path class="st172" d="M1080.1-282.53c0,0,174.03,158.09-91.64,683.17s-242.26,621.87-113.44,770.07"/>
				<path class="st172" d="M1070.27-285.07c0,0,170.33,156.77-91.99,683.3s-244.57,621.72-114.11,771.8"/>
				<path class="st172" d="M1060.44-287.62c0,0,166.62,155.46-92.35,683.43s-246.88,621.56-114.79,773.52"/>
				<path class="st172" d="M1051.68-286.96c0,0,162.38,156.18-94.12,681.42c-256.22,523.8-244.17,619.05-112.18,772.02"/>
				<path class="st172" d="M1042.93-286.3c0,0,158.14,156.89-95.89,679.42c-253.48,519.64-241.46,616.53-109.56,770.53"/>
				<path class="st172" d="M1034.17-285.64c0,0,153.9,157.61-97.66,677.41c-250.73,515.47-238.76,614.01-106.95,769.04"/>
				<path class="st172" d="M1025.41-284.98c0,0,149.65,158.32-99.43,675.41C678,901.74,689.94,1001.93,821.66,1157.97"/>
				<path class="st172" d="M1016.66-284.32c0,0,145.41,159.04-101.2,673.41c-245.23,507.15-233.34,608.98-101.71,766.05"/>
				<path class="st171" d="M1007.9-283.66c0,0,142.2,160.24-102.97,671.4C663.45,891.21,674.3,994.2,805.84,1152.3"/>
				<path class="st171" d="M999.15-283c0,0,138.12,161.04-104.74,669.4c-238.57,499.38-227.92,603.94-96.48,763.06"/>
				<path class="st171" d="M990.39-282.34c0,0,134.05,161.83-106.51,667.4c-235.66,495.29-225.21,601.42-93.86,761.56"/>
				<path class="st171" d="M981.63-281.68c0,0,129.97,162.62-108.28,665.39c-232.76,491.2-222.5,598.91-91.25,760.07"/>
				<path class="st171" d="M972.88-281.02c0,0,125.89,163.41-110.05,663.39c-229.86,487.1-219.79,596.39-88.63,758.57"/>
				<path class="st171" d="M964.12-280.36c0,0,121.81,164.19-111.82,661.38c-226.96,483.01-217.09,593.87-86.02,757.08"/>
				<path class="st171" d="M955.36-279.7c0,0,117.73,164.98-113.59,659.38c-224.07,478.91-214.38,591.35-83.4,755.59"/>
				<path class="st171" d="M946.61-279.04c0,0,113.64,165.76-115.36,657.38c-221.17,474.81-211.67,588.84-80.78,754.09"/>
				<path class="st171" d="M937.85-278.38c0,0,109.56,166.54-117.13,655.37c-218.28,470.71-208.96,586.32-78.17,752.6"/>
				<path class="st171" d="M929.1-277.72c0,0,105.47,167.32-118.9,653.37c-215.4,466.61-206.25,583.8-75.55,751.1"/>
				<path class="st171" d="M920.34-277.06c0,0,101.38,168.1-120.67,651.36c-212.51,462.51-203.54,581.29-72.94,749.61"/>
				<path class="st171" d="M911.58-276.4c0,0,97.29,168.88-122.44,649.36c-209.63,458.4-200.83,578.77-70.32,748.11"/>
				<path class="st170" d="M902.83-275.74c0,0,93.2,169.66-124.21,647.36c-206.75,454.29-198.13,576.25-67.7,746.62"/>
				<path class="st170" d="M894.07-275.09c0,0,89.1,170.43-125.97,645.35C564.22,820.45,572.68,944,703.01,1115.39"/>
				<path class="st170" d="M885.31-274.43c0,0,85.01,171.2-127.74,643.35c-201,446.07-192.71,571.22-62.47,743.63"/>
				<path class="st170" d="M876.56-273.77c0,0,80.91,171.97-129.51,641.35c-198.13,441.95-190,568.7-59.86,742.14"/>
				<path class="st170" d="M867.8-273.11c0,0,76.81,172.74-131.28,639.34c-195.26,437.84-187.29,566.18-57.24,740.64"/>
				<path class="st170" d="M859.05-272.45c0,0,72.7,173.51-133.05,637.34c-192.4,433.72-184.58,563.66-54.62,739.15"/>
				<path class="st170" d="M850.29-271.79c0,0,68.6,174.27-134.82,635.33c-189.54,429.6-181.87,561.15-52.01,737.65"/>
				<path class="st170" d="M841.53-271.13c0,0,64.49,175.04-136.59,633.33c-186.68,425.48-179.16,558.63-49.39,736.16"/>
				<path class="st170" d="M832.78-270.47c0,0,60.38,175.8-138.36,631.33c-183.83,421.35-176.46,556.11-46.77,734.66"/>
				<path class="st170" d="M824.02-269.81c0,0,56.26,176.56-140.13,629.32c-180.98,417.22-173.75,553.59-44.16,733.17"/>
				<path class="st170" d="M815.26-269.15c0,0,52.15,177.31-141.9,627.32c-178.13,413.09-171.04,551.08-41.54,731.67"/>
				<path class="st169" d="M806.51-268.49c0,0,48.03,178.07-143.67,625.32C487.55,765.79,494.51,905.39,623.91,1087"/>
				<path class="st169" d="M797.75-267.83c0,0,43.9,178.82-145.44,623.31C479.86,760.31,486.69,901.52,616,1084.17"/>
				<path class="st169" d="M789-267.17c0,0,39.78,179.57-147.21,621.31c-169.61,400.69-162.91,543.53-33.69,727.19"/>
				<path class="st169" d="M780.24-266.51c0,0,35.65,180.32-148.98,619.3c-166.78,396.55-160.2,541.01-31.08,725.7"/>
				<path class="st169" d="M771.48-265.85c0,0,31.52,181.07-150.75,617.3c-163.96,392.41-157.49,538.49-28.46,724.2"/>
				<path class="st169" d="M762.73-265.19c0,0,27.38,181.81-152.52,615.3c-161.14,388.27-154.79,535.97-25.85,722.71"/>
				<path class="st169" d="M753.97-264.53c0,0,23.24,182.55-154.29,613.29c-158.32,384.12-152.08,533.46-23.23,721.21"/>
				<path class="st169" d="M745.22-263.87c0,0,19.1,183.29-156.06,611.29c-155.5,379.97-149.37,530.94-20.61,719.72"/>
				<path class="st169" d="M736.46-263.21c0,0,14.95,184.03-157.83,609.28c-152.7,375.82-146.66,528.42-18,718.22"/>
				<path class="st169" d="M727.7-262.55c0,0,10.8,184.76-159.6,607.28c-149.89,371.67-143.95,525.9-15.38,716.73"/>
				<path class="st169" d="M718.95-261.9c0,0,6.64,185.49-161.37,605.28c-147.09,367.51-141.24,523.39-12.77,715.23"/>
				<path class="st169" d="M710.19-261.24c0,0,2.48,186.22-163.14,603.27c-144.3,363.36-138.53,520.87-10.15,713.74"/>
				<path class="st168" d="M701.43-260.58c0,0-1.68,186.95-164.91,601.27c-141.51,359.19-135.83,518.35-7.53,712.25"/>
				<path class="st168" d="M692.68-259.92c0,0-5.85,187.67-166.68,599.27c-138.72,355.03-133.12,515.84-4.92,710.75"/>
				<path class="st168" d="M683.92-259.26c0,0-10.03,188.4-168.45,597.26c-135.95,350.86-130.41,513.32-2.3,709.26"/>
				<path class="st168" d="M675.17-258.6c0,0-14.21,189.11-170.22,595.26c-133.17,346.7-127.7,510.8,0.32,707.76"/>
				<path class="st168" d="M666.41-257.94c0,0-18.39,189.83-171.99,593.25c-130.41,342.52-124.99,508.28,2.93,706.27"/>
				<path class="st168" d="M657.65-257.28c0,0-22.59,190.54-173.76,591.25c-127.64,338.35-122.28,505.77,5.55,704.77"/>
				<path class="st168" d="M648.9-256.62c0,0-26.78,191.25-175.53,589.25c-124.89,334.17-119.57,503.25,8.16,703.28"/>
				<path class="st168" d="M640.14-255.96c0,0-30.99,191.96-177.3,587.24c-122.14,329.99-116.86,500.73,10.78,701.78"/>
				<path class="st168" d="M631.38-255.3c0,0-35.2,192.66-179.07,585.24c-119.4,325.81-114.16,498.21,13.4,700.29"/>
				<path class="st168" d="M622.63-254.64c0,0-39.42,193.36-180.83,583.24c-116.66,321.62-111.45,495.7,16.01,698.8"/>
				<path class="st168" d="M613.87-253.98c0,0-43.64,194.06-182.6,581.23c-113.93,317.43-108.74,493.18,18.63,697.3"/>
				<path class="st168" d="M605.12-253.32c0,0-47.88,194.76-184.37,579.23c-111.21,313.24-106.03,490.66,21.24,695.81"/>
				<path class="st167" d="M596.36-252.66c0,0-52.12,195.45-186.14,577.22c-108.49,309.05-103.32,488.14,23.86,694.31"/>
				<path class="st167" d="M587.6-252c0,0-56.37,196.13-187.91,575.22c-105.78,304.85-100.61,485.63,26.48,692.82"/>
				<path class="st167" d="M578.85-251.34c0,0-60.63,196.82-189.68,573.22c-103.08,300.65-97.9,483.11,29.09,691.32"/>
				<path class="st167" d="M570.09-250.68c0,0-64.9,197.5-191.45,571.21c-100.39,296.45-95.19,480.59,31.71,689.83"/>
				<path class="st167" d="M561.33-250.02c0,0-69.18,198.18-193.22,569.21c-97.7,292.24-92.49,478.08,34.32,688.33"/>
				<path class="st167" d="M552.58-249.36c0,0-73.47,198.85-194.99,567.21c-95.03,288.03-89.78,475.56,36.94,686.84"/>
				<path class="st167" d="M543.82-248.7c0,0-77.77,199.52-196.76,565.2c-92.36,283.82-87.07,473.04,39.56,685.35"/>
				<path class="st167" d="M535.07-248.05c0,0-82.08,200.19-198.53,563.2c-89.7,279.61-84.36,470.52,42.17,683.85"/>
				<path class="st167" d="M526.31-247.39c0,0-86.4,200.85-200.3,561.19c-87.05,275.39-81.65,468.01,44.79,682.36"/>
				<path class="st167" d="M517.55-246.73c0,0-90.74,201.51-202.07,559.19c-84.41,271.18-78.94,465.49,47.41,680.86"/>
				<path class="st167" d="M508.8-246.07c0,0-95.09,202.17-203.84,557.19c-81.78,266.95-76.23,462.97,50.02,679.37"/>
				<path class="st166" d="M500.04-245.41c0,0-99.45,202.82-205.61,555.18c-79.15,262.73-73.52,460.45,52.64,677.87"/>
				<path class="st166" d="M491.29-244.75c0,0-103.83,203.47-207.38,553.18c-76.54,258.5-70.82,457.94,55.25,676.38"/>
				<path class="st166" d="M482.53-244.09c0,0-108.23,204.11-209.15,551.17c-73.94,254.28-68.11,455.42,57.87,674.88"/>
				<path class="st166" d="M473.77-243.43c0,0-112.64,204.75-210.92,549.17c-71.35,250.05-65.4,452.9,60.49,673.39"/>
				<path class="st166" d="M465.02-242.77c0,0-117.07,205.39-212.69,547.17c-68.77,245.81-62.69,450.38,63.1,671.9"/>
				<path class="st166" d="M456.26-242.11c0,0-121.52,206.03-214.46,545.16c-66.2,241.58-59.98,447.87,65.72,670.4"/>
				<path class="st166" d="M447.5-241.45c0,0-125.99,206.66-216.23,543.16C167.63,539.05,174,747.06,299.61,970.62"/>
				<path class="st166" d="M438.75-240.79c0,0-130.48,207.28-218,541.16c-61.1,233.1-54.56,442.83,70.95,667.41"/>
				<path class="st166" d="M429.99-240.13c0,0-134.99,207.91-219.77,539.15c-58.57,228.87-51.86,440.32,73.57,665.92"/>
				<path class="st166" d="M421.24-239.47c0,0-139.53,208.53-221.54,537.15c-56.05,224.63-49.15,437.8,76.18,664.42"/>
				<path class="st166" d="M412.48-238.81c0,0-144.1,209.15-223.31,535.14c-53.55,220.39-46.44,435.28,78.8,662.93"/>
				<path class="st166" d="M403.72-238.15c0,0-148.69,209.76-225.08,533.14c-51.06,216.15-43.73,432.76,81.41,661.43"/>
				<path class="st165" d="M394.97-237.49c0,0-153.31,210.37-226.85,531.14c-48.58,211.9-41.02,430.25,84.03,659.94"/>
				<path class="st165" d="M386.21-236.83c0,0-157.96,210.98-228.62,529.13c-46.12,207.66-38.31,427.73,86.65,658.45"/>
				<path class="st165" d="M377.45-236.17c0,0-162.64,211.59-230.39,527.13c-43.67,203.42-35.6,425.21,89.26,656.95"/>
				<path class="st165" d="M368.7-235.51c0,0-167.36,212.2-232.16,525.13C95.3,488.8,103.65,712.31,228.42,945.07"/>
				<path class="st165" d="M359.94-234.85c0,0-172.68,212.69-233.93,523.12c-39.18,194.88-30.19,420.18,94.5,653.96"/>
				<path class="st165" d="M351.19-234.2c0,0-464.19,559.93-138.58,1173.58"/>
			</g>
		</g>
		<g>
			<path class="st173" d="M380.59,567.63l1.14,1.14c12.6,12.6,29.67,19.68,47.49,19.69l900.67,0.66
				c18.12,0.01,35.48-7.29,48.14-20.25l1.22-1.25"/>
			<path class="st174" d="M1280.94,546.11H375.6c-5.94,0-10.76,4.82-10.76,10.76v0c0,5.94,4.82,10.76,10.76,10.76h1002.36
				c5.94,0,10.76-4.82,10.76-10.76v0c0-5.94-4.82-10.76-10.76-10.76H1280.94z"/>
			<polygon class="st174" points="477.8,588.44 473.99,1035.64 461.67,1035.64 458.08,588.44 			"/>
			<polygon class="st174" points="1309.82,588.44 1306,1035.64 1293.68,1035.64 1290.09,588.44 			"/>
		</g>
		<g>
			<path class="st175" d="M1280.78,377.56h-144.92c-4.35,0-8.13,3.02-9.08,7.27l-32.99,146.57h163.49l32.59-142.45
				C1291.19,383.12,1286.76,377.56,1280.78,377.56z"/>
			<path class="st176" d="M1274.7,382.82h-135.01c-4.06,0-7.57,2.81-8.46,6.77l-30.73,136.54h152.3l30.36-132.7
				C1284.4,388,1280.27,382.82,1274.7,382.82z"/>
			<path class="st175" d="M1257.26,530.72v7.7c0,4.25-2.54,7.7-5.68,7.7H999.55c-3.14,0-5.68-3.45-5.68-7.7l0,0
				c0-4.25,2.54-7.7,5.68-7.7H1257.26z"/>
		</g>
		<g>
			<path class="st177" d="M1163.2,467.22h48.41c1.48,0,2.9-1.21,3.16-2.69v0c0.26-1.48-0.74-2.69-2.22-2.69h-48.41
				c-1.48,0-2.9,1.21-3.16,2.69v0C1160.72,466.01,1161.72,467.22,1163.2,467.22z"/>
			<path class="st177" d="M1166.79,456.46h48.41c1.48,0,2.9-1.21,3.16-2.69l0,0c0.26-1.48-0.74-2.69-2.22-2.69h-48.41
				c-1.48,0-2.9,1.21-3.16,2.69l0,0C1164.31,455.25,1165.31,456.46,1166.79,456.46z"/>
			<path class="st178" d="M1177.55,477.97h12.55c1.48,0,2.9-1.21,3.16-2.69l0,0c0.26-1.48-0.74-2.69-2.22-2.69h-12.55
				c-1.48,0-2.9,1.21-3.16,2.69l0,0C1175.07,476.76,1176.07,477.97,1177.55,477.97z"/>
			<g>
				<path class="st177" d="M1186.25,432.65c-0.51,2.89,0.22,5.5,1.82,7.36c1.53,1.79,3.85,2.9,6.63,2.9s5.49-1.1,7.66-2.9
					c2.25-1.86,3.9-4.47,4.41-7.36c1-5.67-2.78-10.26-8.45-10.26C1192.65,422.39,1187.25,426.98,1186.25,432.65z"/>
				
					<ellipse transform="matrix(0.7375 -0.6753 0.6753 0.7375 23.6443 921.2742)" class="st179" cx="1196.94" cy="430.22" rx="3.67" ry="3.07"/>
				<path class="st179" d="M1188.07,440.01c1.53,1.79,3.85,2.9,6.63,2.9s5.49-1.1,7.66-2.9c-0.38-3.07-2.84-5.31-6.21-5.31
					S1189.53,436.93,1188.07,440.01z"/>
			</g>
		</g>
		<g>
			<path class="st180" d="M906.36,976.46c0,0-10.76,39.45-5.38,44.83c5.38,5.38,96.83,5.38,102.21,0c5.38-5.38,0-23.31-19.72-28.69
				c0,0-30.48-1.79-30.48-16.14C952.98,976.46,911.74,971.08,906.36,976.46z"/>
			<path class="st180" d="M1026.5,978.26c0,0-5.38,39.45,0,44.83c5.38,5.38,93.24,7.17,98.62,1.79s7.17-21.52-12.55-26.9
				c0,0-28.69-3.59-28.69-17.93C1083.88,980.05,1031.88,972.88,1026.5,978.26z"/>
			<path class="st181" d="M831.05,519.22c0,0,34.07-1.79,35.86-3.59c1.79-1.79,14.63-9.76,23.45-5.78c0,0,10.51,21.48,14.15,22.59
				c0,0-19.67,2.91-23.26,6.49c-3.59,3.59-17.93,1.79-26.9,3.59c-8.97,1.79-23.31,5.38-23.31,5.38V519.22z"/>
			<path class="st182" d="M893.81,440.32c0,0,43.04,89.66,53.79,89.66s86.07-1.79,91.45-3.59s19.72-12.55,26.9-12.55
				s25.1,3.59,30.48,21.52c0,0-1.79,5.38-8.97,3.59c-7.17-1.79-25.1,10.76-37.66,8.97c-12.55-1.79-68.14,17.93-100.42,19.72
				c-32.28,1.79-53.79-34.07-53.79-34.07l-34.07-62.76L893.81,440.32z"/>
			<path class="st183" d="M798.77,323.77c1.79,0,52,12.55,69.93,34.07s37.66,71.73,37.66,71.73s-43.04,50.21-53.79,43.04
				c-10.76-7.17-17.93-17.93-17.93-17.93l-5.38,141.66l-16.14,8.97l-62.76-281.52H798.77z"/>
			<path class="st175" d="M804.15,628.6c0,0,179.01-12.48,222.35,14.35c37.66,23.31,62.76,41.24,55.59,75.31
				c-7.17,34.07-10.76,245.66,1.79,261.8h-59.17c0,0-30.43-125.52-39.45-208h-26.9c0,0-21.52,186.49-5.38,204.42l-46.62-1.79
				c0,0-30.64-156-37.73-202.62l-64.48-71.73V628.6z"/>
			<g>
				<path class="st183" d="M844.74,192.77c0,0,7.83-3.49,11.41-10.66c3.59-7.17,16.14-37.66,3.59-35.86
					c-12.55,1.79-32.28,0-43.04-3.59s-57.38-16.14-66.35-1.79c-8.97,14.35-19.72,30.48-17.93,52c1.79,21.52,30.48,53.79,30.48,53.79
					s5.38,25.1,32.28,19.72c26.9-5.38,30.48-7.17,35.86-26.9S844.74,192.77,844.74,192.77z"/>
				<path class="st182" d="M798.77,313.01v-25.1c0,0,46.62-1.79,50.21-44.83s0-55.59-7.17-53.79c-7.17,1.79-7.17,7.17-5.38,19.72
					c0,0,0,8.97-3.59,7.17c-3.59-1.79-7.17-8.97-10.76-8.97s-8.97,1.79-10.76,7.17c-1.79,5.38,3.59,28.69,7.17,28.69
					c0,0,0,14.35-8.97,14.35c-8.97,0-39.45-1.79-46.62-10.76l-5.38,41.24L798.77,313.01z"/>
				<path class="st182" d="M848.98,223.35c0,0,5.38,12.55,3.59,14.35c-1.79,1.79-5.38,0-5.38,0"/>
			</g>
		</g>
		<g>
			<g>
				<path class="st174" d="M597.94,1026.67h358.63c0,0,10.76-3.59-21.52-14.34c-32.28-10.76-66.35-21.52-118.35-21.52h-16.14V854.53
					h-7.17v-89.66h-30.48v89.66h-7.17v136.28h-17.93c-52,0-86.07,10.76-118.35,21.52C587.18,1023.09,597.94,1026.67,597.94,1026.67z
					"/>
				<circle class="st174" cx="895.6" cy="1053.57" r="17.93"/>
				<circle class="st174" cx="777.26" cy="1053.57" r="17.93"/>
				<circle class="st174" cx="657.12" cy="1053.57" r="17.93"/>
			</g>
			<path class="st174" d="M567.46,349.59v358.98c0,35.06,28.42,63.48,63.48,63.48h359.15c29.03,0,52.56-23.53,52.56-52.56v-0.91
				c0-12.07-9.77-21.84-21.84-21.84H966l10.42-68.57c5.54,1.33,10.62,2.69,15.19,4.02c1.15,0,7.14-0.13,11.98-4.48
				c3.08-2.76,4.98-6.58,4.98-10.79v-3.8c0-8.41-7.17-13.2-16.96-15.28c-19.83-6.38-51.23-14.09-90.43-14
				c-37.87,0.09-68.35,7.42-88.06,13.7V349.59c0-35.06-28.42-63.48-63.48-63.48H630.94C595.88,286.11,567.46,314.53,567.46,349.59z
				 M813.12,631.9c20.62-5.92,50.96-12.35,88.06-12.44c29.94-0.07,55.51,4.04,75.17,8.7c-2.35-1.12-5.38-2.31-9.02-3.14
				c-4.63-1.06-8.69-1.18-11.71-1.04l-9.16,72.77H813.12V631.9z"/>
			<path class="st173" d="M596.87,286.11h118.69c35.06,0,63.48,28.42,63.48,63.48v421.16c0,0.72-0.58,1.3-1.3,1.3H596.87
				c-35.06,0-63.48-28.42-63.48-63.48V349.59C533.39,314.53,561.81,286.11,596.87,286.11z"/>
			<polygon class="st184" points="793.39,789.41 762.91,804.97 762.91,772.05 793.39,772.05 			"/>
		</g>
	</g>
</g>
</svg>
