<svg version="1.1" id="Layer_1" xmlns="http://www.w3.org/2000/svg" x="0" y="0" viewBox="0 0 200 200" xml:space="preserve"><style>.st0{fill:#fff}.st2{fill:#d20000;stroke:#272727;stroke-miterlimit:10}</style><path class="st0" d="M162.42 51.6s-1.3 51.11-17.55 80.25c-18.7 33.5-54.95 49.01-54.95 49.01s-36.25-15.51-54.95-49.01C18.72 102.71 17.42 51.6 17.42 51.6l72.5-32.47 72.5 32.47z"/><path d="M156.68 55.14c-.66 12.05-3.75 50.8-16.68 73.99-14.99 26.85-42.18 41.7-50.07 45.57h-.01c-7.9-3.9-35.15-18.81-50.08-45.57-12.93-23.18-16.02-61.93-16.68-73.99l66.76-29.9 66.76 29.9z" fill="#272727"/><path class="st0" d="M153.2 57.26c-.87 13.53-4.24 48.95-16.13 70.25-13.66 24.49-37.94 38.73-47.14 43.46l-.01-.01c-9.22-4.75-33.53-19.04-47.15-43.45-11.89-21.3-15.26-56.72-16.13-70.25l63.28-28.34 63.28 28.34z"/><g><path class="st2" d="M133.62 120.88v57.41h-11.24v-46.01l-11.24 4.59v-9.76l15.34-6.23h7.14zM142.47 178.29v-57.41l11.24-2.46v20.5c1.64-1.37 3.46-2.41 5.45-3.12 2-.71 4.17-1.07 6.52-1.07 4.92 0 8.97 1.59 12.14 4.76s4.76 7.25 4.76 12.22v26.57h-11.24v-24.93c0-2.68-.81-4.84-2.42-6.48-1.61-1.64-3.76-2.46-6.44-2.46-1.86 0-3.54.37-5.04 1.11-1.5.74-2.75 1.79-3.73 3.16v29.61h-11.24z"/></g></svg>