<?xml version="1.0" encoding="utf-8"?>
<!-- Generator: Adobe Illustrator 24.0.2, SVG Export Plug-In . SVG Version: 6.00 Build 0)  -->
<svg version="1.1" id="Layer_1" xmlns="http://www.w3.org/2000/svg" xmlns:xlink="http://www.w3.org/1999/xlink" x="0px" y="0px"
	 viewBox="0 0 200 200" style="enable-background:new 0 0 200 200;" xml:space="preserve">
<style type="text/css">
	.st0{fill:#FFFFFF;}
	.st1{fill:#272727;}
	.st2{fill:#D20000;stroke:#272727;stroke-miterlimit:10;}
</style>
<g>
	<g>
		<g>
			<g>
				<path class="st0" d="M162.42,51.6c0,0-1.3,51.11-17.55,80.25c-18.7,33.5-54.95,49.01-54.95,49.01s-36.25-15.51-54.95-49.01
					C18.72,102.71,17.42,51.6,17.42,51.6l72.5-32.47L162.42,51.6z"/>
			</g>
		</g>
		<path class="st1" d="M156.68,55.14c-0.66,12.05-3.75,50.8-16.68,73.99c-14.99,26.85-42.18,41.7-50.07,45.57c-0.01,0-0.01,0-0.01,0
			c-7.9-3.9-35.15-18.81-50.08-45.57C26.91,105.95,23.82,67.2,23.16,55.14l66.76-29.9L156.68,55.14z"/>
		<path class="st0" d="M153.2,57.26c-0.87,13.53-4.24,48.95-16.13,70.25c-13.66,24.49-37.94,38.73-47.14,43.46l-0.01-0.01
			c-9.22-4.75-33.53-19.04-47.15-43.45c-11.89-21.3-15.26-56.72-16.13-70.25l63.28-28.34L153.2,57.26z"/>
	</g>
	<g>
		<g>
			<path class="st2" d="M133.62,120.88v57.41h-11.24v-46.01l-11.24,4.59v-9.76l15.34-6.23H133.62z"/>
			<path class="st2" d="M142.47,178.29v-57.41l11.24-2.46v20.5c1.64-1.37,3.46-2.41,5.45-3.12c2-0.71,4.17-1.07,6.52-1.07
				c4.92,0,8.97,1.59,12.14,4.76c3.17,3.17,4.76,7.25,4.76,12.22v26.57h-11.24v-24.93c0-2.68-0.81-4.84-2.42-6.48
				c-1.61-1.64-3.76-2.46-6.44-2.46c-1.86,0-3.54,0.37-5.04,1.11c-1.5,0.74-2.75,1.79-3.73,3.16v29.61H142.47z"/>
		</g>
	</g>
</g>
</svg>
