<svg version="1.1" id="Layer_1" xmlns="http://www.w3.org/2000/svg" x="0" y="0" viewBox="0 0 200 200" xml:space="preserve"><style>.st0{fill:#ff2e2e}</style><path class="st0" d="M149.04 59.13v16.35H50.96V59.13c0-27.1 21.95-49.04 49.04-49.04s49.04 21.94 49.04 49.04zM124.52 116.35v8.17c0 13.53-10.99 24.52-24.52 24.52s-24.52-10.99-24.52-24.52v-8.17c6.83 5.11 15.33 8.17 24.52 8.17s17.7-3.06 24.52-8.17z"/><path d="M133.6 113.44c7.26-8.15 11.35-18.6 11.35-29.79v-4.09h4.09c2.26 0 4.09-1.83 4.09-4.09V59.13C153.13 29.84 129.3 6 100 6S46.87 29.84 46.87 59.13v16.35c0 2.26 1.83 4.09 4.09 4.09h4.09v4.09c0 11.19 4.09 21.63 11.36 29.79-15.9 4.06-27.71 18.46-27.71 35.6v36.78c0 4.51 3.67 8.17 8.17 8.17h106.26c4.51 0 8.17-3.67 8.17-8.17v-36.78c0-17.15-11.8-31.55-27.7-35.61zM100 144.96c-11.27 0-20.43-9.17-20.43-20.43v-.83c6.3 3.22 13.24 4.92 20.43 4.92 7.19 0 14.13-1.7 20.43-4.92v.84c0 11.25-9.16 20.42-20.43 20.42zM55.04 59.13c0-24.79 20.17-44.96 44.96-44.96s44.96 20.17 44.96 44.96v12.26H55.04V59.13zm8.18 20.44h73.57v4.09c0 11.66-5.37 22.38-14.71 29.42-6.43 4.81-14.06 7.36-22.07 7.36s-15.64-2.55-22.06-7.35c-9.36-7.05-14.72-17.77-14.72-29.43v-4.09zm-16.35 89.91H67.3c2.26 0 4.09-1.83 4.09-4.09s-1.83-4.09-4.09-4.09H46.87v-12.26c0-14.39 10.68-26.33 24.52-28.32v3.8c0 14.38 10.68 26.29 24.52 28.28v33.02H46.87v-16.34zm106.26-8.18H132.7c-2.26 0-4.09 1.83-4.09 4.09s1.83 4.09 4.09 4.09h20.43v16.35h-49.04V152.8c13.84-1.99 24.52-13.9 24.52-28.28v-3.8c13.85 1.99 24.52 13.93 24.52 28.32v12.26z" fill="#d20000"/></svg>