<?xml version="1.0" encoding="utf-8"?>
<!-- Generator: Adobe Illustrator 24.0.2, SVG Export Plug-In . SVG Version: 6.00 Build 0)  -->
<svg version="1.1" id="Layer_1" xmlns="http://www.w3.org/2000/svg" xmlns:xlink="http://www.w3.org/1999/xlink" x="0px" y="0px"
	 viewBox="0 0 200 200" style="enable-background:new 0 0 200 200;" xml:space="preserve">
<style type="text/css">
	.st0{fill:#FF2E2E;}
	.st1{fill:#D20000;}
</style>
<g>
	<g>
		<path class="st0" d="M149.04,59.13v16.35h-8.17H59.13h-8.17V59.13c0-27.1,21.95-49.04,49.04-49.04S149.04,32.03,149.04,59.13z"/>
		<path class="st0" d="M124.52,116.35v8.17c0,13.53-10.99,24.52-24.52,24.52s-24.52-10.99-24.52-24.52v-8.17
			c6.83,5.11,15.33,8.17,24.52,8.17S117.7,121.46,124.52,116.35z"/>
	</g>
	<path class="st1" d="M133.6,113.44c7.26-8.15,11.35-18.6,11.35-29.79v-4.09h4.09c2.26,0,4.09-1.83,4.09-4.09V59.13
		C153.13,29.84,129.3,6,100,6S46.87,29.84,46.87,59.13v16.35c0,2.26,1.83,4.09,4.09,4.09h4.09v4.09c0,11.19,4.09,21.63,11.36,29.79
		c-15.9,4.06-27.71,18.46-27.71,35.6v36.78c0,4.51,3.67,8.17,8.17,8.17h106.26c4.51,0,8.17-3.67,8.17-8.17v-36.78
		C161.3,131.9,149.5,117.5,133.6,113.44z M100,144.96c-11.27,0-20.43-9.17-20.43-20.43v-0.83c6.3,3.22,13.24,4.92,20.43,4.92
		c7.19,0,14.13-1.7,20.43-4.92v0.84C120.43,135.79,111.27,144.96,100,144.96z M55.04,59.13c0-24.79,20.17-44.96,44.96-44.96
		s44.96,20.17,44.96,44.96v12.26H55.04V59.13z M63.22,79.57h73.57v4.09c0,11.66-5.37,22.38-14.71,29.42
		c-6.43,4.81-14.06,7.36-22.07,7.36s-15.64-2.55-22.06-7.35c-9.36-7.05-14.72-17.77-14.72-29.43V79.57z M46.87,169.48H67.3
		c2.26,0,4.09-1.83,4.09-4.09s-1.83-4.09-4.09-4.09H46.87v-12.26c0-14.39,10.68-26.33,24.52-28.32v3.8
		c0,14.38,10.68,26.29,24.52,28.28v33.02H46.87V169.48z M153.13,161.3H132.7c-2.26,0-4.09,1.83-4.09,4.09s1.83,4.09,4.09,4.09h20.43
		v16.35h-49.04V152.8c13.84-1.99,24.52-13.9,24.52-28.28v-3.8c13.85,1.99,24.52,13.93,24.52,28.32V161.3z"/>
</g>
</svg>
