<?xml version="1.0" encoding="utf-8"?>
<!-- Generator: Adobe Illustrator 24.0.2, SVG Export Plug-In . SVG Version: 6.00 Build 0)  -->
<svg version="1.1" id="Layer_1" xmlns="http://www.w3.org/2000/svg" xmlns:xlink="http://www.w3.org/1999/xlink" x="0px" y="0px"
	 viewBox="0 0 200 200" style="enable-background:new 0 0 200 200;" xml:space="preserve">
<style type="text/css">
	.st0{fill:#FF2E2E;}
	.st1{fill:#D20000;}
</style>
<g>
	<g>
		<path class="st0" d="M193.36,45.68l-63.19,39.29c7.2,3.95,12.13,11.03,13.33,19.15c0.25,1.79-0.99,3.45-2.78,3.7
			c-0.16,0.02-0.33,0.03-0.49,0.03h-12.6l15.64,12.9h14.36c6.54-0.08,11.9,5.15,11.99,11.69c0.03,2.69-0.85,5.3-2.5,7.42
			l-17.06,21.92c-2.26,2.95-5.77,4.67-9.49,4.66H34.46c-3.7,0.01-7.2-1.71-9.46-4.63L7.9,139.89c-4.02-5.16-3.09-12.61,2.07-16.63
			c2.12-1.65,4.74-2.53,7.43-2.5h20.75v-12.9h-9.7c-1.8,0.02-3.28-1.43-3.3-3.23c0-0.16,0.01-0.33,0.03-0.49
			c0.85-5.6,3.51-10.77,7.57-14.73c4.98-4.89,11.68-7.63,18.66-7.63V68.74c0-1.8,1.46-3.25,3.25-3.25H92.1
			c6.63,0,12.01,5.37,12.01,12v-0.1v4.32h1.93l78.32-47.67c1.37-0.84,3.14-0.56,4.19,0.66l5.53,6.25c1.13,1.41,0.89,3.47-0.52,4.6
			C193.5,45.59,193.43,45.64,193.36,45.68z"/>
		<path class="st0" d="M104.07,81.7H51.41l0,0V68.74c0-1.8,1.46-3.25,3.25-3.25H92.1c6.63,0,12,5.34,12,11.93l0,0v4.28l0,0H104.07z"
			/>
	</g>
	<path class="st1" d="M34.24,166.45h106.53c3.71,0,7.22-1.71,9.5-4.63l17.07-21.93c4-5.2,3.03-12.66-2.17-16.66
		c-2.1-1.62-4.68-2.48-7.33-2.46H17.17c-6.56-0.05-11.92,5.23-11.96,11.8c-0.02,2.65,0.85,5.23,2.46,7.33l17.1,21.93
		C27.05,164.73,30.54,166.44,34.24,166.45z"/>
	<path class="st0" d="M141.05,152.29l10.16-13.02c1.1-1.43,0.83-3.47-0.59-4.56c-0.57-0.44-1.26-0.67-1.98-0.68H26.44
		c-1.8-0.01-3.26,1.43-3.28,3.23c-0.01,0.73,0.23,1.44,0.68,2.01l10.16,13.02c0.62,0.81,1.59,1.28,2.6,1.27h101.85
		C139.46,153.56,140.42,153.09,141.05,152.29z"/>
	<g>
		<ellipse class="st1" cx="120.34" cy="143.63" rx="9.86" ry="9.76"/>
		<ellipse class="st1" cx="87.52" cy="143.63" rx="9.86" ry="9.76"/>
		<ellipse class="st1" cx="54.69" cy="143.63" rx="9.86" ry="9.76"/>
	</g>
	<polygon class="st0" points="38.14,107.86 126.65,107.86 142.29,120.76 38.14,120.76 	"/>
	<path class="st1" d="M28.36,107.86h111.71c1.81,0.02,3.28-1.43,3.3-3.24c0-0.16-0.01-0.33-0.03-0.49
		c-1.18-8.12-6.09-15.21-13.28-19.16c-3.94-2.16-8.36-3.28-12.85-3.27h-66c-7-0.01-13.72,2.74-18.71,7.65
		c-4.02,3.99-6.64,9.18-7.46,14.78c-0.25,1.79,0.99,3.44,2.78,3.7C28.01,107.86,28.19,107.87,28.36,107.86z"/>
	<path class="st0" d="M105.85,81.7h11.19c4.47-0.01,8.87,1.11,12.78,3.25l62.75-39.04c1.52-0.95,1.99-2.96,1.04-4.48
		c-0.09-0.15-0.2-0.3-0.32-0.43l-5.5-6.21c-1.05-1.22-2.84-1.48-4.2-0.62L105.85,81.7z"/>
</g>
</svg>
