<svg version="1.1" id="Layer_1" xmlns="http://www.w3.org/2000/svg" x="0" y="0" viewBox="0 0 200 200" xml:space="preserve"><style>.st0{fill:#ff2e2e}.st1{fill:#d20000}</style><path class="st0" d="M193.36 45.68l-63.19 39.29a26.206 26.206 0 0113.33 19.15c.25 1.79-.99 3.45-2.78 3.7-.16.02-.33.03-.49.03h-12.6l15.64 12.9h14.36c6.54-.08 11.9 5.15 11.99 11.69.03 2.69-.85 5.3-2.5 7.42l-17.06 21.92a11.908 11.908 0 01-9.49 4.66H34.46c-3.7.01-7.2-1.71-9.46-4.63L7.9 139.89c-4.02-5.16-3.09-12.61 2.07-16.63a11.88 11.88 0 017.43-2.5h20.75v-12.9h-9.7a3.27 3.27 0 01-3.27-3.72 26.04 26.04 0 017.57-14.73 26.632 26.632 0 0118.66-7.63V68.74c0-1.8 1.46-3.25 3.25-3.25H92.1c6.63 0 12.01 5.37 12.01 12v-.1 4.32h1.93l78.32-47.67c1.37-.84 3.14-.56 4.19.66l5.53 6.25c1.13 1.41.89 3.47-.52 4.6-.06.04-.13.09-.2.13z"/><path class="st0" d="M104.07 81.7H51.41V68.74c0-1.8 1.46-3.25 3.25-3.25H92.1c6.63 0 12 5.34 12 11.93v4.28h-.03z"/><path class="st1" d="M34.24 166.45h106.53c3.71 0 7.22-1.71 9.5-4.63l17.07-21.93c4-5.2 3.03-12.66-2.17-16.66-2.1-1.62-4.68-2.48-7.33-2.46H17.17c-6.56-.05-11.92 5.23-11.96 11.8-.02 2.65.85 5.23 2.46 7.33l17.1 21.93c2.28 2.9 5.77 4.61 9.47 4.62z"/><path class="st0" d="M141.05 152.29l10.16-13.02c1.1-1.43.83-3.47-.59-4.56-.57-.44-1.26-.67-1.98-.68H26.44a3.259 3.259 0 00-3.28 3.23c-.01.73.23 1.44.68 2.01L34 152.29c.62.81 1.59 1.28 2.6 1.27h101.85c1.01 0 1.97-.47 2.6-1.27z"/><ellipse class="st1" cx="120.34" cy="143.63" rx="9.86" ry="9.76"/><ellipse class="st1" cx="87.52" cy="143.63" rx="9.86" ry="9.76"/><ellipse class="st1" cx="54.69" cy="143.63" rx="9.86" ry="9.76"/><path class="st0" d="M38.14 107.86h88.51l15.64 12.9H38.14z"/><path class="st1" d="M28.36 107.86h111.71c1.81.02 3.28-1.43 3.3-3.24 0-.16-.01-.33-.03-.49a26.136 26.136 0 00-13.28-19.16 26.599 26.599 0 00-12.85-3.27h-66c-7-.01-13.72 2.74-18.71 7.65a26.177 26.177 0 00-7.46 14.78c-.25 1.79.99 3.44 2.78 3.7.19.03.37.04.54.03z"/><path class="st0" d="M105.85 81.7h11.19c4.47-.01 8.87 1.11 12.78 3.25l62.75-39.04a3.257 3.257 0 00.72-4.91l-5.5-6.21a3.251 3.251 0 00-4.2-.62L105.85 81.7z"/></svg>